<?xml version="1.0" encoding="UTF-8" standalone="no"?>
<!-- Created for MapSVG plugin: http://mapsvg.com -->

<svg
   xmlns:mapsvg="http://mapsvg.com"
   xmlns:dc="http://purl.org/dc/elements/1.1/"
   xmlns:cc="http://creativecommons.org/ns#"
   xmlns:rdf="http://www.w3.org/1999/02/22-rdf-syntax-ns#"
   xmlns:svg="http://www.w3.org/2000/svg"
   xmlns="http://www.w3.org/2000/svg"
   xmlns:sodipodi="http://sodipodi.sourceforge.net/DTD/sodipodi-0.dtd"
   xmlns:inkscape="http://www.inkscape.org/namespaces/inkscape"
   mapsvg:geoViewBox="-169.110266 83.600842 190.486279 -58.508473"
   width="1009.6727"
   height="665.96301"
   version="1.1"
   id="svg258"
   sodipodi:docname="oceania.svg"
   inkscape:version="0.92.5 (2060ec1f9f, 2020-04-08)">
  <metadata
     id="metadata264">
    <rdf:RDF>
      <cc:Work
         rdf:about="">
        <dc:format>image/svg+xml</dc:format>
        <dc:type
           rdf:resource="http://purl.org/dc/dcmitype/StillImage" />
        <dc:title></dc:title>
      </cc:Work>
    </rdf:RDF>
  </metadata>
  <defs
     id="defs262" />
  <sodipodi:namedview
     pagecolor="#ffffff"
     bordercolor="#666666"
     borderopacity="1"
     objecttolerance="10"
     gridtolerance="10"
     guidetolerance="10"
     inkscape:pageopacity="0"
     inkscape:pageshadow="2"
     inkscape:window-width="1886"
     inkscape:window-height="1029"
     id="namedview260"
     showgrid="false"
     inkscape:zoom="1.6305857"
     inkscape:cx="753.59386"
     inkscape:cy="149.2455"
     inkscape:window-x="34"
     inkscape:window-y="1106"
     inkscape:window-maximized="1"
     inkscape:current-layer="layer10" />
  <g
     inkscape:groupmode="layer"
     id="layer1"
     inkscape:label="oceanía">
    <path
       d="m 484.61275,644.9594 -0.051,0.023 -0.127,-10e-4 -0.043,0.006 -0.063,0.047 -0.02,-0.02 -0.023,-0.036 -0.01,-0.094 0.028,-0.105 0.041,-0.049 0.072,-0.043 0.058,-0.025 0.056,-0.01 0.03,0.003 0.105,0.077 0.008,0.055 -0.016,0.068 -0.017,0.049 z"
       title="Bouvet Island"
       id="BV"
       inkscape:connector-curvature="0" />
    <path
       d="m 26.585748,523.5834 -0.09,10e-4 -0.114,-0.022 -0.074,-0.012 -0.008,-0.028 0.029,-0.085 0.06,-0.042 0.119,0.006 0.081,0.059 0.007,0.097 z"
       title="Cook Islands"
       id="CK"
       inkscape:connector-curvature="0" />
    <path
       d="m 370.76475,643.1304 0.273,0.232 0.217,-0.158 0.225,0.019 0.123,0.078 0.126,0.03 0.158,10e-4 0.272,0.392 -0.114,0.347 0.298,-0.068 0.259,0.289 0.118,-0.023 0.059,-0.117 0.167,-0.134 0.115,0.18 0.14,0.345 0.177,0.105 0.156,0.365 0.123,0.462 0.112,0.066 0.192,0.001 0.195,-0.063 -0.074,0.4 0.023,0.354 0.322,0.255 -0.192,0.141 -0.202,0.204 -0.411,0.157 -0.107,-0.066 -0.359,-0.355 -0.167,-0.418 -0.377,-0.596 -0.074,-0.175 -0.097,-0.112 -0.341,-0.072 -0.3,-0.143 -0.25,-0.3 -0.078,-0.184 -0.096,-0.128 -0.339,0.007 -0.214,-0.141 -0.211,-0.192 -0.953,-0.554 -0.374,0.056 -0.172,-0.156 0.009,-0.277 0.197,-0.165 -0.825,-0.063 -0.293,-0.099 0.202,-0.06 1.15,-0.009 0.431,-0.046 0.038,0.119 0.381,0.245 z m 30.421,22.057 0.012,0.306 -0.436,-0.28 -0.101,-0.132 0.14,-0.171 0.274,-0.006 0.067,0.104 z"
       title="South Georgia and South Sandwich Islands"
       id="GS"
       inkscape:connector-curvature="0" />
    <path
       d="m 1003.3637,470.6364 0.092,0.053 0.07,0.072 0.034,0.1 v 0.025 l -0.054,-10e-4 -0.065,-0.031 -0.047,-0.042 -0.024,-0.011 -0.01,-0.009 0.056,0.006 0.064,0.042 0.048,0.019 v -0.049 l -0.058,-0.085 -0.034,-0.029 -0.044,-0.025 -0.05,-0.017 -0.034,0.015 -0.019,0.007 -0.01,-0.02 0.01,-0.018 0.018,-0.018 0.06,0.016 z m 1.719,1.031 -0.013,0.021 -0.02,-0.018 0.014,-0.033 0.012,-0.028 0.019,0.015 z m -0.416,3.71 -0.027,0.013 -0.032,-0.004 -0.021,-0.019 v -0.03 l 0.026,-0.021 0.037,0.007 0.021,0.027 v 0.027 z m -2.754,0.133 0.018,0.019 0.041,-0.005 0.036,-0.003 -0.022,0.019 -0.074,0.008 -0.036,-0.048 0.045,-0.037 0.04,-0.006 v 0.01 0.011 h -0.019 l -0.03,0.009 v 0.023 z m -6.44995,0.459 0.033,0.037 v 0.018 l -0.016,-0.003 -0.048,-0.011 -0.016,-0.022 0.035,0.015 0.015,-0.003 -0.032,-0.033 -0.028,-0.024 -0.021,-0.01 v -0.012 l 0.026,0.006 z m -967.750002,-23.994 0.224,0.236 -0.043,0.119 -0.162,-0.011 -0.074,-0.042 0.126,-0.021 0.021,-0.044 -0.058,-0.069 -0.077,-0.048 h -0.053 l -0.013,0.095 -0.087,-0.074 0.051,-0.074 0.062,-0.049 z m 932.620002,2.219 -0.178,0.093 -0.054,-0.015 0.211,-0.132 -10e-4,0.016 z m -0.352,0.217 -0.208,0.108 -0.056,-0.058 0.075,-0.002 0.14,-0.104 0.169,-0.008 -0.02,0.058 z m -926.664002,3.337 0.467,0.323 -0.198,0.023 -0.488,-0.156 -0.446,-0.319 0.133,-0.069 0.065,0.115 0.203,0.107 0.12,-0.225 0.079,-0.051 -0.356,-0.232 0.141,0.012 0.337,0.158 z m 927.153002,0.027 0.014,0.064 -0.16,-0.175 -0.095,-0.113 0.006,-0.049 0.043,0.031 0.053,0.055 0.035,0.044 z m 0.031,0.358 -0.102,0.012 0.076,-0.04 0.021,-0.055 -0.012,-0.173 0.04,0.014 0.014,0.071 0.007,0.104 z m 0.024,1.047 -0.075,0.01 0.049,-0.057 0.321,-0.063 0.028,-0.018 0.052,0.035 -0.001,0.033 -0.023,0.017 -0.159,10e-4 -0.125,0.03 z m -0.016,0.917 0.151,0.11 -0.02,0.076 -0.051,0.087 -0.197,0.222 -0.06,-0.021 0.192,-0.201 0.074,-0.133 -0.11,-0.102 -0.044,0.022 h -0.018 l -0.038,-0.095 h 0.038 z m 4.143,5.06 -0.091,0.076 -0.035,-0.069 0.045,-0.085 -0.076,-0.353 -0.126,-0.048 -0.075,-0.106 h 0.036 l 0.126,0.097 0.101,0.044 0.059,0.232 z m -13.913,0.2 -0.026,0.006 -0.053,-0.029 0.007,-0.036 0.037,-0.016 0.047,0.027 z m 14.655,0.943 0.017,0.144 -0.064,-0.019 -0.021,-0.056 -0.021,-0.145 -0.067,-0.142 0.076,0.038 0.063,0.111 z m -925.381002,8.027 -0.008,0.017 -0.034,-0.022 -0.066,-0.041 -0.056,-0.045 -10e-4,-0.019 0.079,-0.027 0.101,-0.021 0.022,0.029 -0.019,0.041 z m -2.547,4.305 -0.065,0.015 h -0.076 l -0.038,-0.037 -0.002,-0.03 h 0.026 l 0.024,0.005 0.108,0.005 0.028,0.022 z m 11.454,16.4 -0.023,0.045 -0.044,-0.016 -0.026,-0.057 -0.009,-0.062 0.017,-0.05 0.029,0.002 0.033,0.062 z"
       title="Kiribati"
       id="KI"
       inkscape:connector-curvature="0" />
    <path
       d="m 81.782748,487.8634 -0.275,0.066 -0.131,-0.012 -0.099,-0.23 0.036,-0.142 0.044,-0.045 0.468,0.056 0.04,0.104 -0.007,0.099 z m 1.45,0.084 -0.182,0.022 -0.03,-0.14 0.056,-0.074 0.078,-0.035 0.139,0.043 0.073,0.061 -0.004,0.052 z m -1.458,1.372 -0.061,0.052 -0.114,-0.169 -0.018,-0.071 0.206,-0.088 0.112,0.046 z m 2.951,0.761 0.42,0.147 0.132,-0.016 -0.134,0.145 -0.419,0.079 -0.139,0.07 -0.169,-0.045 -0.091,-0.168 z m -0.1,0.669 -0.208,0.221 v -0.235 l 0.075,-0.031 h 0.068 z m 1.147,1.654 -0.103,0.048 -0.007,-0.303 0.133,0.058 0.052,0.049 -0.022,0.083 z m -17.962,15.303 -0.018,0.131 -0.053,-0.126 -0.173,-0.202 -0.064,-0.09 0.077,0.014 z m 7.127,0.697 -0.05,0.031 0.064,-0.23 0.072,-0.029 z m -8.349,0.678 0.013,0.05 -0.058,-0.003 -0.104,-0.147 -0.037,-0.127 -0.066,-0.145 -0.091,-0.105 -0.01,-0.097 -0.003,-0.153 0.103,0.234 0.098,0.188 0.071,0.154 z m -16.783,0.954 -0.051,0.022 -0.054,-0.053 -0.023,-0.081 0.019,-0.131 0.136,0.086 0.054,0.058 z m 22.159,-0.067 -0.111,0.017 -0.271,-0.173 h 0.104 l 0.155,0.108 z m 0.366,-0.043 0.153,0.143 -0.203,-0.098 -0.258,-0.042 0.098,-0.026 0.143,0.004 z m -22.365,0.751 -0.111,0.004 -0.101,-0.045 0.025,-0.3 0.027,-0.062 0.156,0.101 0.131,0.262 z m 4.48,1.949 -0.088,0.076 -0.117,-0.054 -0.052,-0.073 -0.019,-0.078 0.027,-0.093 0.262,0.013 0.074,0.041 z m 1.38,0.424 0.404,0.136 0.075,0.221 -0.086,0.147 -0.204,-0.036 -0.101,-0.081 -0.142,-0.264 -0.395,0.06 -0.273,-0.052 -0.151,-0.344 -0.006,-0.156 0.066,-0.095 0.29,-0.104 0.362,0.076 0.138,0.195 z m 23.89,0.488 0.014,0.056 -0.102,-0.007 -0.03,-0.019 0.002,-0.104 0.074,-0.126 0.058,-0.106 0.118,-0.099 0.211,-0.099 0.102,-0.042 0.033,0.023 -0.039,0.015 -0.349,0.208 -0.109,0.146 -0.048,0.102 0.009,0.032 z m -0.058,0.976 0.02,0.081 -0.105,-0.054 -0.099,-0.149 -0.177,-0.185 -0.042,-0.076 0.136,0.072 0.089,0.108 z m 10.828,0.449 0.001,0.055 -0.27,-0.281 0.106,0.022 z m -10.422,0.111 0.038,0.107 -0.068,-0.05 -0.217,-0.104 -0.024,-0.087 z m 12.324,0.484 -0.057,0.064 -0.005,-0.062 -0.079,-0.03 -0.109,-0.063 -0.148,-0.072 -0.08,-0.012 -0.04,-0.042 0.056,-0.022 0.091,0.033 0.128,0.066 0.148,0.066 z m -6.207,6.854 -0.082,0.056 0.03,-0.076 -0.063,-0.166 -0.062,-0.024 0.062,-0.047 0.088,0.125 z"
       title="French Polynesia"
       id="PF"
       inkscape:connector-curvature="0" />
    <path
       d="m 316.98275,314.5654 -0.245,0.176 -0.085,-0.098 0.021,-0.116 0.125,-0.279 -0.004,-0.081 -0.148,-0.542 0.025,-0.089 0.037,-0.039 0.217,0.115 0.025,0.148 -0.103,0.333 0.071,0.221 0.096,0.16 z m 0.326,0.311 -0.059,0.039 -0.201,-0.059 0.096,-0.127 0.068,-0.037 0.091,-0.016 0.043,0.039 -0.005,0.094 z"
       title="Saint Pierre and Miquelon"
       id="PM"
       inkscape:connector-curvature="0" />
    <path
       d="m 114.85075,533.1164 -0.028,0.046 -0.058,-0.039 -0.06,-0.089 -0.023,-0.093 0.056,-0.052 0.075,0.031 0.036,0.096 z"
       title="Pitcairn Islands"
       id="PN"
       inkscape:connector-curvature="0" />
    <path
       d="m 620.36875,609.6544 -0.205,0.036 -0.183,-0.083 -0.104,-0.221 0.231,-0.189 0.119,0.13 0.088,0.145 z m 48.693,11.118 0.226,0.024 0.138,-0.039 0.619,-0.563 0.162,-0.014 -0.016,0.431 0.159,0.194 -0.201,0.05 -0.382,-0.021 -0.087,0.247 0.385,0.316 0.192,0.043 0.156,-0.003 0.293,-0.072 0.234,-0.114 0.363,-0.264 0.218,-0.103 0.412,-0.004 0.215,-0.25 0.1,-0.077 0.241,0.011 0.219,0.098 0.131,0.227 0.069,0.276 -0.053,0.274 -0.146,0.267 -0.267,0.163 0.061,0.195 -0.071,0.099 -0.134,0.006 -0.114,-0.045 -0.168,-0.229 -0.202,-0.122 -0.484,0.008 -0.218,0.016 -0.038,0.175 -0.115,0.135 -0.12,0.074 -0.163,-0.032 -0.03,0.074 0.087,0.184 0.212,0.232 0.366,0.162 0.215,0.033 0.029,-0.309 0.26,-0.036 0.229,0.092 0.167,0.228 -0.136,0.075 -0.119,0.121 -0.025,0.156 -0.232,0.17 -0.139,0.019 -0.438,-0.084 -0.261,-0.191 -0.062,-0.136 -0.161,-0.051 -0.181,0.175 -0.194,0.038 -0.38,-0.146 -0.351,-0.234 -0.219,-0.088 -0.341,-0.056 -0.189,0.531 -0.261,0.226 -0.338,0.021 -0.162,-0.044 -0.09,-0.209 0.023,-0.223 0.055,-0.214 0.106,-0.218 0.066,-0.238 -0.028,-0.225 -0.122,-0.164 0.064,-0.295 -0.12,-0.23 0.042,-0.169 0.195,-0.116 -0.083,-0.102 -0.104,-0.026 -0.075,-0.134 -0.058,-0.162 0.076,-0.304 0.113,-0.292 -0.014,-0.329 0.191,-0.311 0.164,-0.348 0.122,-0.138 0.154,-0.021 0.067,0.097 0.033,0.189 -0.061,0.123 0.144,0.056 0.038,0.403 -0.09,0.166 -0.014,0.16 -0.187,0.341 0.054,0.274 z m 0.274,-0.216 -0.173,0.033 -0.054,-0.139 0.006,-0.184 -0.096,-0.146 -0.055,-0.162 0.048,-0.153 0.278,-0.018 0.287,0.049 0.073,0.259 -0.207,0.354 z"
       title="French Southern and Antarctic Lands"
       id="TF"
       inkscape:connector-curvature="0" />
    <path
       d="m 25.797748,464.0314 h -0.019 l -0.043,-0.016 -0.005,-0.034 0.031,-0.016 0.046,0.001 0.023,0.028 -0.01,0.031 z"
       title="Jarvis Island"
       id="UM-DQ"
       inkscape:connector-curvature="0" />
  </g>
  <g
     inkscape:groupmode="layer"
     id="layer2"
     inkscape:label="australia"
     sodipodi:insensitive="true">
    <path
       style=""
       d="m 840.87475,494.6464 -0.102,-0.256 0.045,-0.064 0.052,-0.034 0.066,0.008 0.26,0.274 0.113,0.075 0.166,0.199 0.375,0.024 0.45,-0.214 0.21,0.087 0.1,-0.016 0.33,-0.203 0.215,-0.058 0.144,-0.15 0.146,0.162 0.326,0.188 0.103,0.197 0.138,0.093 0.046,0.062 -0.199,0.207 -0.025,0.223 -0.213,-0.015 -0.255,0.366 -0.957,0.614 -0.859,-0.524 -0.373,-0.354 -0.25,-0.49 z m 18.467,12.683 0.032,0.145 0.152,0.141 0.12,-0.134 -0.063,-0.116 -0.019,-0.218 -0.154,-0.197 -0.066,0.167 -0.063,0.039 -0.059,0.133 z m 6.327,2.884 0.123,0.002 0.2,-0.066 0.104,-0.14 0.109,0.036 0.217,-0.256 0.146,-0.126 0.388,-0.042 -0.262,-0.325 -0.047,-0.023 -0.362,0.126 -0.466,0.083 -0.18,0.175 -0.186,0.287 -0.042,0.256 0.033,0.081 z m 8.218,-18.834 0.068,-0.195 -0.121,-0.095 -0.144,0.199 0.124,0.168 z m -15.629,3.476 0.401,-0.523 0.109,-0.518 -0.137,0.035 -0.013,0.228 -0.047,0.153 -0.063,0.055 -0.109,0.097 -0.25,0.416 -0.107,0.103 0.014,0.128 z m -11.52,-0.611 0.224,0.439 0.056,-0.044 0.101,-0.38 -0.091,-0.178 -0.01,-0.309 -0.041,-0.082 -0.115,0.169 -0.151,0.025 0.091,0.224 z m 10.904,1.193 0.256,-0.21 0.025,-0.123 -0.085,0.06 -0.511,0.254 -0.244,0.286 0.444,-0.212 z m 1.312,11.606 0.045,-0.021 0.077,-0.09 -0.037,-0.25 -0.088,0.12 z m 14.83,-14.284 -0.015,0.079 0.032,0.18 0.152,0.085 0.234,-0.163 -0.216,-0.32 z m -15.795,14.156 0.032,0.128 0.047,0.015 0.168,-0.012 0.061,-0.244 -0.074,-0.03 -0.178,0.027 z m 1.074,-3.999 -0.276,-0.113 -0.104,-0.123 -0.013,-0.122 0.12,-0.365 0.075,-0.11 0.079,-0.031 0.176,-0.2 -0.042,-0.116 -0.057,-0.066 -0.071,-0.037 -0.114,0.263 -0.131,0.008 -0.121,-0.119 -0.053,-0.223 0.017,-0.128 -0.13,-0.016 -0.204,0.13 -0.138,0.208 -0.307,0.205 -0.037,0.42 0.046,0.331 -0.1,0.142 -0.159,0.104 0.078,0.049 0.272,0.016 0.531,0.132 0.318,-0.021 0.368,0.057 0.104,-0.135 0.055,-0.178 -0.047,-0.015 z m 40.28,28.299 0.065,-0.041 0.097,-0.128 -0.061,-0.158 -0.128,-0.224 0.032,-0.198 -0.079,-0.05 -0.088,0.009 -0.096,-0.077 -0.243,-0.092 -0.075,0.212 0.424,0.641 z m 5.091,6.157 0.071,-0.085 0.018,-0.212 0.162,-0.525 0.586,-1.388 0.025,-0.263 -0.172,-0.192 -0.045,-0.544 -0.07,-0.029 -0.095,0.033 -0.119,0.078 -0.104,0.154 0.12,0.055 0.156,0.276 -0.041,0.256 -0.107,0.2 -0.424,0.377 0.063,0.337 -0.026,0.161 -0.146,0.291 -0.063,0.318 0.085,0.55 z m 1.035,4.845 0.061,-0.047 -0.045,-0.36 0.113,-0.513 -0.097,-0.025 -0.147,0.061 -0.042,0.28 0.032,0.303 z m -0.056,0.55 -0.014,0.502 0.086,0.13 0.073,0.017 0.242,-0.867 -0.048,-0.044 -0.242,-0.054 z m -8.094,-15.959 0.09,-0.047 -0.076,-0.237 -0.094,-0.053 -0.01,0.172 -0.063,0.121 0.072,0.051 z m -1.651,-0.39 -10e-4,-0.132 -0.044,-0.303 -0.104,0.076 -0.017,0.23 0.067,0.22 z m -10.7,-11.602 0.211,0.207 0.125,0.258 0.177,0.1 0.079,-0.106 0.042,-0.143 -0.121,-0.217 -0.058,-0.279 -0.082,-0.016 -0.051,0.045 -0.124,0.041 -0.247,-0.01 z m -10.767,-23.153 0.167,-0.176 -0.112,-0.147 -0.225,0.026 -0.066,0.141 0.059,0.103 z m 18.681,28.641 0.058,-0.045 0.033,-0.269 -0.103,0.073 -0.07,0.098 -0.055,0.124 0.074,0.032 z m 0.145,0.451 0.091,0.002 0.067,-0.033 0.004,-0.042 -0.114,-0.167 -0.066,-0.202 -0.118,0.387 z m -26.741,-9.579 -0.143,0.121 0.037,0.12 0.105,-0.05 0.313,-0.059 -0.03,-0.153 -0.188,-0.15 z m 16.916,67.796 -0.169,-0.145 -0.368,0.017 -0.026,0.079 -0.016,0.177 0.156,0.108 z m 7.889,5.881 -0.077,-0.069 -0.258,-0.103 -0.499,-0.659 -0.188,-0.115 -0.264,0.384 -0.202,0.141 0.127,0.146 0.18,-0.018 0.083,0.24 -0.043,0.157 0.376,0.575 0.063,0.149 0.075,0.103 0.09,0.078 0.294,-0.104 0.25,-0.224 0.039,0.004 0.027,-0.106 -0.203,-0.165 0.109,-0.125 z m -0.17,1.939 -0.052,-0.037 -0.071,-0.007 -0.213,0.067 0.027,0.083 0.171,0.179 z m -8.724,-7.203 0.399,-0.028 0.236,0.133 -0.017,-0.067 -0.098,-0.169 -0.074,-0.066 -0.196,-0.048 z m -0.966,7.172 0.018,-0.244 -0.021,-0.02 -0.09,0.13 -0.115,0.055 0.105,0.383 z m -24.205,-85.169 -0.071,0.047 -0.034,0.079 0.002,0.104 0.255,0.055 0.066,-0.032 0.106,-0.096 -0.05,-0.243 -0.118,-0.12 z m 63.812,143.65 -0.171,0.957 0.026,0.22 0.094,-0.191 0.188,-0.652 0.037,-0.495 z m -29.666,-59.215 -0.36,0.187 -0.391,-0.003 -0.136,0.087 0.027,0.086 0.231,0.174 0.313,0.022 0.296,-0.084 0.094,0.23 0.144,-0.039 0.197,-0.199 -0.15,-0.24 z m 0.041,6.706 -0.036,-0.141 -0.074,-0.127 v -0.135 l 0.039,-0.288 -0.078,-0.42 0.025,-0.635 -0.027,-0.341 0.008,-0.336 0.063,-0.43 -0.017,-0.434 -0.041,-0.217 -0.018,-0.22 0.021,-0.624 -0.218,-0.341 -0.512,-0.273 -0.181,-0.005 -0.269,0.344 -0.155,-0.003 -0.55,-0.1 -0.119,0.114 -0.221,0.328 -0.129,0.139 -0.188,-0.06 -0.189,-0.107 -0.145,0.012 -0.141,0.088 -0.317,0.04 -0.325,-0.007 -0.197,0.094 -0.177,0.15 -0.058,0.189 0.034,0.218 -0.175,-0.202 -0.175,-0.132 -0.205,0.142 -0.214,0.097 -0.721,0.078 -0.579,-0.168 -0.813,-0.347 -0.129,-0.102 -0.117,-0.13 -0.134,-0.085 -0.308,-0.129 -0.12,-0.148 -0.136,-0.042 -0.156,0.021 -0.225,-0.118 -0.187,-0.208 -0.165,-0.018 -0.184,0.094 -0.325,-0.014 -0.63,-0.24 -0.28,-0.182 -0.025,0.408 -0.179,0.732 0.046,0.363 0.1,0.415 0.187,0.561 0.005,0.181 0.034,0.107 0.386,0.841 0.393,0.685 0.513,0.725 0.059,0.33 -0.067,0.338 0.167,-0.022 0.103,-0.166 0.024,0.165 0.058,0.139 0.438,0.48 0.03,0.127 -0.166,0.397 -0.094,-0.328 -0.174,-0.257 -0.488,-0.407 0.107,0.85 0.087,0.337 0.616,1.455 0.084,0.094 0.14,0.064 0.119,0.116 0.201,0.297 0.34,0.644 0.198,0.186 0.286,-0.059 0.421,0.131 0.144,-0.036 0.089,0.055 0.052,0.15 -0.33,-0.003 -0.321,0.083 -0.035,0.125 0.088,0.141 0.084,0.395 0.403,-0.133 0.636,0.026 0.38,-0.042 0.423,0.359 0.379,0.067 0.111,-0.026 0.227,-0.425 0.141,-0.511 0.087,-0.195 0.117,-0.166 -0.252,-0.219 -0.008,-0.111 0.033,-0.128 0.494,0.382 0.202,-0.154 0.042,-0.343 v -0.212 l 0.059,-0.151 0.124,-0.07 0.05,-0.188 0.014,-0.145 -0.128,-0.328 -0.012,-0.189 0.31,0.393 0.124,0.533 0.237,-0.141 0.034,-0.084 -0.037,-0.369 0.106,-0.123 0.336,0.1 0.299,0.214 0.021,0.099 -0.02,0.1 -0.074,0.088 -0.243,-0.09 -0.111,0.156 0.144,0.39 0.244,0.374 0.147,-0.096 0.3,-0.051 0.1,-0.095 -0.064,-0.752 -0.12,-0.55 -0.008,-0.601 0.034,-0.327 0.138,-0.252 0.101,-0.266 -0.013,-0.343 0.05,-0.324 0.123,-0.336 0.172,-0.251 0.08,-0.058 -0.042,-0.07 0.073,-0.217 0.13,-0.159 0.079,0.195 -0.104,0.076 -0.061,0.085 0.204,0.143 0.061,0.127 0.021,0.14 -0.021,0.174 0.037,0.134 0.115,0.025 0.032,-0.175 -0.033,-0.212 z m 14.691,-47.646 -0.339,-0.608 -0.075,-0.477 -0.119,-0.408 -0.527,-1.146 -0.228,-0.661 0.127,-0.664 -0.219,-2.121 0.227,-1.056 -0.11,-0.129 -0.273,-0.163 -0.121,-0.167 -0.181,-0.396 -0.02,-0.793 -0.35,-0.488 -0.378,-0.223 -0.256,-0.4 -0.172,-0.333 -0.024,-0.185 -0.104,-0.313 -0.29,-0.215 -0.199,-0.102 -0.427,-0.313 -0.209,-0.316 -0.429,-0.899 -0.199,-0.239 -0.396,-0.258 -0.324,-0.015 -0.209,-0.064 -0.742,-0.572 -0.231,-0.125 -0.186,-0.268 -0.278,-0.288 -0.161,-0.212 -0.247,-0.225 -0.169,-0.855 v -0.83 l -0.054,-0.989 -0.257,-0.477 -0.139,-0.154 -0.152,0.051 -0.012,0.308 0.042,0.21 -0.107,0.01 -0.382,-0.272 -0.478,-0.29 -0.258,-0.324 -0.188,-0.304 -0.156,0.012 -0.11,0.048 -0.11,0.374 0.179,0.645 -0.088,0.088 -0.151,-0.149 -0.275,-0.337 -0.143,0.11 -0.189,0.043 -0.165,-0.338 -0.139,-0.213 -0.201,-0.705 -0.18,-0.776 -0.017,-0.561 -0.351,-0.308 -0.137,-0.529 -0.109,-0.147 -0.103,-0.375 -0.405,-0.49 -0.416,-0.346 -0.345,-0.327 -0.297,-0.463 0.13,-0.335 0.211,0.071 0.224,-0.032 -0.179,-0.341 -0.174,-0.229 -0.445,-0.429 -0.207,-0.108 -0.448,-0.063 -0.498,-0.391 -0.305,-0.169 -0.215,-0.027 -0.249,-0.061 -0.176,-0.221 -0.311,-0.073 -0.438,-0.437 -0.215,-0.44 -0.108,-0.162 -0.147,-0.122 -0.216,0.073 -0.178,0.033 -0.392,-0.062 -0.129,-0.179 -0.253,-0.227 -0.487,-0.06 -0.385,-0.143 -0.294,-0.141 -0.298,-0.18 -0.274,-0.3 -0.243,-0.401 0.042,-0.514 0.061,-0.333 -0.31,-0.129 -0.535,-0.697 -0.026,-0.285 0.144,-0.582 0.146,-1.002 -0.213,-0.744 -0.415,-0.907 0.028,-0.46 -0.209,-0.006 -0.232,-0.09 -0.327,-0.447 -0.248,-0.294 -0.167,-0.271 -0.181,-0.367 0.029,-0.294 0.043,-0.198 0.018,-0.524 -0.231,-0.509 -0.073,-0.521 -0.219,-0.651 0.061,-0.432 -0.048,-0.356 -0.068,-0.308 0.071,-0.196 0.029,-0.249 -0.302,-0.249 -0.324,-0.19 -0.418,-0.336 -0.751,-0.524 -0.173,-0.396 -0.318,-0.354 -0.425,0.137 -0.313,0.065 -0.292,0.267 -0.404,0.197 -0.392,-0.178 -0.186,-0.15 -0.138,-0.53 -0.179,-0.578 -0.152,-0.29 -0.114,-0.35 0.107,-0.853 -0.16,-0.401 -0.05,-0.599 -0.152,-0.684 -0.169,-0.342 0.012,-0.275 -0.314,-0.403 -0.1,-0.289 -0.178,-0.104 -0.226,-0.165 -0.032,-0.221 0.017,-0.161 0.135,-0.267 0.073,-0.346 -0.315,-0.086 -0.219,-0.015 -0.153,-0.109 -0.172,-0.169 -0.062,-0.538 0.006,-0.57 -0.045,-0.356 -0.094,-0.265 -0.066,-0.28 -0.159,-0.298 -0.478,-0.387 0.035,-0.156 0.111,-0.202 -0.169,-0.116 h -0.248 l -0.14,0.27 -0.226,0.232 -0.443,0.177 -0.083,0.928 -0.275,1.02 -0.25,0.753 0.046,0.228 -0.02,0.223 -0.135,-0.1 -0.119,-0.125 -0.182,0.298 -0.329,0.773 -0.03,0.401 0.193,0.108 0.135,0.106 0.161,0.035 0.073,0.099 0.041,0.194 0.104,0.167 -0.026,0.181 -0.125,-0.071 -0.263,10e-4 -0.134,0.157 -0.339,0.314 0.089,0.904 -0.159,0.476 -0.153,0.369 -0.173,0.7 0.023,0.371 0.153,0.264 0.165,0.386 -0.1,0.532 -0.101,0.381 0.226,1.104 0.063,0.588 -0.124,0.401 -0.364,1.186 -0.164,0.868 0.053,0.479 -0.158,0.44 -0.18,0.704 -0.203,0.532 -0.711,1.074 -0.141,0.52 -0.239,0.648 -0.511,0.378 -0.386,0.236 -0.846,0.234 -0.488,-0.005 -0.252,-0.143 -0.145,-0.124 -0.575,-0.207 -0.699,-0.468 -0.538,-0.152 -0.266,-0.47 -0.026,-0.195 -0.096,-0.254 -0.282,-0.334 -0.532,-0.113 -0.546,-0.241 -0.337,0.034 -0.731,-0.207 -0.487,-0.295 -0.445,-0.409 -0.587,-0.708 -0.498,-0.191 -0.637,-0.293 -0.366,-0.244 -0.222,-0.118 -0.246,-0.183 -0.224,0.041 -0.387,0.005 -0.243,-0.172 -0.031,-0.135 0.037,-0.106 0.014,-0.193 -0.085,-0.029 h -0.086 l -0.071,0.052 -0.099,0.038 -0.342,-0.148 -0.479,-0.247 -0.09,-0.217 -0.151,-0.265 -0.662,-0.385 -0.384,-0.318 -0.848,-0.461 -0.217,-0.223 -0.071,-0.195 -0.063,-0.281 0.19,-0.292 0.185,-0.207 0.577,-0.859 0.173,-0.15 0.217,-0.233 0.199,-0.627 0.099,-0.358 -0.169,-0.542 -0.006,-0.91 0.67,-0.353 0.187,-0.046 0.173,-0.078 0.198,0.11 0.133,0.171 0.138,-0.031 0.374,-0.634 -0.06,-0.264 -0.155,-0.225 0.054,-0.139 1.152,-1.241 -0.141,-0.304 -0.171,-0.07 -0.328,0.021 -0.309,-0.265 -0.194,-0.501 -0.272,-0.018 -0.486,0.514 -0.057,0.118 0.118,0.067 0.103,0.312 -0.19,0.366 -0.19,0.003 -0.312,-0.036 -0.142,-0.261 -0.064,-0.398 -0.198,-0.112 -0.226,0.075 -0.187,0.14 -0.132,0.04 -0.11,-0.091 -0.006,-0.166 0.285,-0.276 0.239,-0.177 0.019,-0.066 -0.174,-0.054 0.026,-0.128 0.222,-0.227 -0.104,-0.012 -0.271,0.243 -0.289,0.14 -0.384,0.298 -0.551,0.195 -0.378,0.264 -0.527,-0.08 -0.491,-0.26 -0.107,-0.137 -0.242,-0.201 -0.539,0.218 -0.339,-0.023 -0.187,-0.077 -0.319,-0.052 -0.274,-0.193 -0.66,-0.308 -0.701,-0.059 -0.34,0.014 -0.253,-0.159 -0.244,-0.091 -0.479,-0.064 -0.199,-0.239 -0.251,-0.481 -0.18,-0.129 -0.291,-0.046 -0.309,0.221 -0.181,0.104 -0.353,-0.395 -0.627,-0.408 -0.2,-0.056 -0.105,0.099 -0.076,0.188 -0.119,0.018 -0.139,-0.085 -0.245,-0.241 -0.16,-0.044 -0.42,0.257 0.029,0.088 0.343,0.131 0.36,0.359 0.171,0.074 0.404,-0.094 0.554,0.068 0.559,0.448 -0.082,0.223 -0.042,0.31 0.015,0.338 -0.013,0.229 0.23,0.252 -0.103,0.019 -0.26,-0.057 -0.205,0.07 -0.193,0.119 -0.086,0.339 -0.109,-0.16 -0.334,-0.152 -0.198,0.117 -0.332,0.154 -0.302,-0.062 -0.192,-0.078 -0.454,0.132 -0.809,-0.004 -0.27,-0.19 -0.079,-0.326 -0.063,-0.08 -0.074,0.146 -0.127,0.168 -0.489,0.034 -0.073,0.069 0.029,0.163 -0.019,0.205 -0.188,0.015 -0.232,0.054 0.025,0.251 0.043,0.196 -0.086,0.098 -0.255,-0.179 -0.114,-0.193 -0.179,-0.06 -0.14,0.069 -0.036,0.172 0.021,0.444 -0.127,0.05 -0.331,-0.017 -0.152,0.084 -0.229,0.558 -0.421,0.213 -0.064,0.291 -0.028,0.248 0.35,0.449 -0.169,0.23 -0.178,0.188 -0.178,0.08 -0.378,0.073 -0.278,0.205 -0.117,0.216 -0.022,0.206 -0.077,0.264 -0.121,0.313 -0.024,0.169 -0.253,0.168 -0.45,0.503 -0.227,0.515 0.296,0.28 0.348,0.201 0.253,-0.006 0.002,0.051 -0.264,0.207 0.164,0.212 0.253,0.198 0.154,0.029 0.113,0.084 -0.239,0.047 -0.354,0.017 -0.068,0.216 0.043,0.249 0.063,0.216 -0.044,0.153 -0.132,-0.105 -0.058,-0.162 -0.304,-0.33 -0.218,-0.101 -0.319,-0.078 -0.096,0.1 0.013,0.503 -0.063,0.231 -0.113,-0.131 -0.028,-0.368 -0.301,-0.298 -1.186,-0.298 -0.168,-0.019 -0.276,0.039 -0.189,0.118 -0.019,0.116 -0.126,0.094 -0.205,0.107 -0.188,0.164 -0.122,0.137 -0.006,0.171 0.152,0.321 0.089,0.093 -0.012,0.153 -0.148,-0.159 -0.13,-0.051 -0.123,0.25 -0.118,0.05 0.031,-0.698 0.123,-0.473 0.1,-0.279 0.11,-0.218 -0.053,-0.115 -0.822,-0.653 -0.348,-0.535 -0.255,-0.3 -0.397,-0.289 -0.207,-0.182 -0.461,-0.278 -0.544,-0.193 -0.262,-0.261 -0.289,-0.093 -0.358,0.127 -0.03,0.243 0.045,0.236 -0.285,0.386 -0.307,0.206 -0.245,-0.236 -0.223,-0.172 -0.225,0.124 -0.068,0.213 -0.113,0.079 -0.085,-0.145 -0.123,-0.32 -0.183,-0.127 -0.183,0.056 0.055,0.254 0.105,0.14 -0.029,0.202 -0.132,0.093 -0.025,0.191 -0.079,0.254 0.012,0.355 -0.209,0.075 -0.156,0.281 -0.113,-0.06 -0.029,-0.183 -0.057,-0.187 -0.228,-0.071 -0.084,0.174 -0.051,0.059 -0.081,0.012 0.055,-0.142 v -0.266 l 0.066,-0.278 -0.216,-0.1 -0.086,0.062 0.003,0.24 -0.052,0.35 -0.214,0.055 -0.19,0.157 -0.281,0.003 -0.143,0.076 -0.051,0.185 -0.247,0.191 0.005,0.229 0.166,0.232 0.011,0.202 0.395,0.205 -0.023,0.206 -0.056,0.096 -0.149,-0.038 -0.319,-0.178 -0.325,-0.038 -0.098,-0.082 -0.039,0.059 -0.002,0.137 -0.126,0.1 -0.181,0.01 -0.211,0.147 0.15,0.23 -0.027,0.091 0.074,0.11 0.322,0.02 0.137,-0.029 0.014,0.196 -0.041,0.196 -0.131,0.07 -0.125,-0.18 -0.621,-0.345 -0.163,-0.033 -0.034,0.108 0.029,0.141 -0.131,0.171 -0.231,0.224 -0.157,-0.061 -0.186,0.053 -0.12,0.383 -0.042,0.383 0.206,0.268 0.138,0.353 0.287,-0.434 0.117,-0.05 10e-4,0.188 -0.112,0.195 -0.066,0.24 -0.022,0.271 -0.188,0.007 -0.211,-0.036 -0.051,0.086 -0.079,0.202 0.046,0.279 0.14,0.105 0.325,-0.01 0.277,0.02 0.247,0.101 0.041,0.085 -0.223,-0.048 -0.456,0.026 -0.217,-0.038 -0.431,0.026 -0.32,-0.159 -0.158,-0.159 -0.239,-0.041 -0.233,0.064 -0.13,0.223 -0.157,0.054 -0.365,-0.552 -0.229,-0.037 -0.113,0.129 0.11,0.346 -0.058,0.213 -0.125,0.159 -0.158,-0.01 -0.098,0.067 0.078,0.146 0.25,0.371 0.205,0.162 0.182,0.225 0.093,0.194 0.22,-0.009 0.051,0.157 -0.126,0.228 0.004,0.362 -0.09,0.019 -0.127,-0.08 -0.252,-0.223 -0.13,-0.043 -0.067,0.064 -0.021,0.153 0.061,0.4 -0.129,0.571 0.026,0.167 -0.023,0.142 -0.106,-0.103 -0.13,-0.221 -0.269,-0.343 -0.329,-0.747 -0.348,-0.506 -0.189,-0.431 -0.291,-0.811 -0.151,-0.012 -0.193,0.349 -0.213,0.459 -0.145,0.226 -0.344,0.225 -0.212,0.228 -0.254,0.08 -0.279,0.26 -0.201,0.223 -0.282,0.52 -0.048,0.335 0.012,0.353 0.123,0.501 0.13,0.728 0.191,0.078 0.154,0.123 -0.043,0.22 -0.234,0.139 -0.718,0.689 -0.483,0.246 -0.138,0.173 -0.177,0.365 -0.256,0.461 -0.116,0.291 -0.269,0.564 -0.438,0.63 -0.443,0.468 -0.511,0.375 -0.335,0.179 -1.248,0.524 -0.666,0.2 -1.203,0.146 -0.51,0.237 -0.638,-0.077 -0.714,-0.051 -0.991,0.792 -0.822,0.193 -0.728,0.145 -0.313,0.13 -0.716,0.457 -0.417,0.209 -0.778,0.234 -0.319,-0.024 -0.431,-0.215 -0.403,0.05 -0.446,-0.031 -0.364,0.02 -0.283,0.178 -1.669,0.946 -0.33,0.258 -0.343,0.375 -0.492,0.347 -0.393,0.4 -0.826,0.417 -0.85,0.316 -0.42,0.263 -0.299,0.357 -0.521,0.96 -0.11,0.243 -0.208,0.253 -0.276,0.092 -0.179,0.082 0.063,-0.482 -0.199,-0.428 0.14,-0.817 -0.052,-0.244 -0.284,0.159 -0.181,0.174 -0.459,1.184 -0.314,0.923 0.238,0.53 0.077,0.308 -10e-4,0.331 -0.084,0.476 0.006,0.31 -0.028,0.413 -0.572,0.958 -0.178,0.417 -0.192,0.802 -0.023,0.372 0.014,0.557 0.241,0.488 0.184,0.302 0.285,0.874 0.342,0.581 0.563,1.171 0.621,0.95 0.04,0.364 -0.07,0.49 0.034,0.507 -0.111,0.149 -0.24,0.175 -0.275,-0.225 -0.14,-0.195 -0.176,-0.718 -0.072,-0.041 -0.118,0.314 -0.13,0.137 -0.118,-0.093 -0.09,-0.119 -0.022,-0.124 0.04,-0.148 0.043,-0.538 -0.258,-0.307 -0.229,-0.33 -0.247,-0.081 -0.152,0.149 -0.005,0.205 0.331,0.574 0.213,0.622 0.329,0.389 0.194,0.1 0.217,0.237 -0.047,0.525 -0.157,0.196 -0.131,0.1 -0.427,-0.116 -0.099,-0.378 -0.334,-0.743 -0.108,-0.288 -0.092,-0.078 -0.037,0.142 0.007,0.256 -0.062,0.11 -0.065,-0.011 -0.132,-0.134 -0.119,-0.072 -0.072,0.025 0.13,0.185 0.286,0.548 1.056,1.344 0.895,1.566 0.197,0.62 0.099,1.364 0.089,0.33 0.528,0.679 0.517,0.787 0.152,0.392 -0.003,0.336 0.105,0.319 0.642,0.866 0.286,0.93 0.035,0.34 -0.082,0.584 0.075,1.033 0.072,0.562 0.233,1.114 0.278,0.804 0.329,0.5 0.45,1.112 0.684,1.284 0.111,0.635 -0.035,1.693 -0.049,0.552 -0.15,0.095 -0.101,0.233 0.146,1.114 0.034,0.636 -0.221,0.6 -0.25,0.533 -0.439,0.364 -0.497,0.012 -0.231,-0.212 -0.295,-0.217 -0.052,0.969 -0.006,0.832 0.09,0.317 0.01,0.374 0.334,0.291 0.188,-0.113 0.232,-0.016 0.807,0.412 0.453,0.34 0.73,0.914 0.646,0.241 0.842,0.416 0.978,0.132 0.782,0.024 1.229,0.219 0.263,-0.078 0.526,-0.068 0.402,-0.142 0.362,-0.091 1.08,-0.849 1.053,-0.874 0.521,-0.069 0.467,-0.01 0.57,-0.298 0.518,-0.903 0.264,-0.201 0.351,-0.225 0.997,-0.132 0.587,0.093 0.314,-0.146 0.797,-0.163 1.658,-0.15 0.91,0.121 0.608,-0.02 0.322,0.06 0.252,0.395 1.759,-0.34 0.5,-0.024 0.313,0.057 0.394,0.295 0.442,-0.279 0.397,0.037 0.402,-0.269 0.611,-0.806 0.278,-0.503 0.445,-1.059 0.33,-0.38 0.363,-0.189 0.426,-0.061 0.657,-0.191 1.425,-0.891 0.553,-0.192 0.292,-0.168 0.981,-0.691 0.615,-0.133 1.804,0.179 0.855,-0.046 0.662,-0.108 1.005,-0.372 1.094,-0.28 1.343,-0.588 1.122,-0.608 0.679,-0.14 1.069,-0.107 1.574,-0.158 1.833,0.082 0.464,-0.125 0.228,-0.111 0.321,-0.119 0.396,0.083 0.304,0.09 0.92,0.485 1.386,1.021 0.306,0.043 0.912,-0.233 0.305,0.023 1.276,0.75 0.529,0.016 0.423,-0.019 0.32,0.081 0.34,0.204 0.403,0.472 0.853,0.453 0.043,0.366 -0.063,0.238 -0.192,0.009 -0.163,0.051 0.205,0.767 0.358,0.62 0.86,0.084 0.313,0.217 0.201,0.245 0.157,0.389 0.117,0.609 0.431,0.508 0.402,0.434 0.094,0.179 0.189,0.615 0.072,0.18 0.157,0.609 0.229,0.696 -0.063,0.071 -0.136,-0.015 -0.242,-0.177 -0.213,-0.197 -0.114,0.031 -0.13,0.135 -0.019,0.167 0.19,-0.044 0.111,0.024 0.263,0.213 0.245,0.248 0.194,0.145 0.468,0.618 0.183,-0.138 0.224,-0.123 0.356,0.336 0.142,0.067 0.081,-0.129 -0.135,-0.603 -0.135,-0.146 -0.032,-0.214 0.167,-0.153 0.081,-0.183 0.397,-0.451 0.869,-1.347 0.267,-0.154 0.308,-0.295 0.416,-0.225 0.43,-0.267 0.274,-0.104 0.269,-0.055 0.301,-0.247 0.328,-0.668 0.247,-0.791 0.264,-0.348 0.404,-0.371 0.311,-0.515 -0.025,-0.403 0.004,-0.411 0.224,0.317 0.141,0.322 0.223,1.077 -0.191,0.237 -0.202,0.119 0.039,0.378 0.135,0.493 0.05,0.395 -0.424,0.417 -0.366,0.524 -0.439,1.018 -0.028,0.308 -0.069,0.428 0.026,0.377 0.068,0.365 -0.108,0.566 -0.177,0.506 -0.232,0.013 -0.158,-0.019 -0.347,0.045 -0.32,-0.03 -0.367,1.106 0.233,0.052 0.178,-0.063 h 0.321 l 0.359,-0.198 0.525,-0.162 0.3,0.057 0.352,-0.018 0.512,-1.416 0.127,-0.921 0.261,-0.413 0.081,-0.285 0.135,-0.27 0.272,0.464 0.219,0.451 0.482,0.732 0.151,0.365 0.06,0.888 -0.313,1.03 -0.188,0.295 -0.227,0.257 -0.19,0.433 0.575,0.11 0.373,-0.008 0.583,-0.315 0.115,-0.042 0.293,-0.005 0.112,-0.165 0.287,-0.157 0.214,-0.184 0.277,-0.145 0.252,0.096 0.057,0.083 0.063,0.093 -0.093,0.204 -0.008,0.431 -0.165,-0.047 -0.147,-0.256 -0.184,0.066 -0.128,0.193 -0.275,-0.061 0.046,0.126 0.147,0.247 0.581,0.476 0.621,0.631 0.231,0.298 0.506,0.951 0.36,1.011 -0.029,0.299 -0.177,0.54 -0.127,0.549 0.011,0.288 0.117,0.365 0.255,0.374 0.946,1.021 0.5,0.9 0.665,0.467 1.077,0.172 0.569,0.338 0.591,0.682 0.188,0.058 0.287,0.028 0.368,-0.415 0.561,0.044 0.738,0.412 0.439,-0.098 0.313,0.051 0.438,0.233 0.641,0.461 0.68,0.232 0.404,0.349 0.314,0.052 0.563,0.227 0.414,-0.194 0.352,-0.244 0.813,-0.845 0.637,-0.407 0.335,-0.158 0.269,-0.07 0.341,-0.264 -0.212,-0.186 -0.201,0.031 -0.344,-0.105 0.196,-0.122 0.205,-0.091 0.99,-0.628 0.263,0.186 0.182,0.208 0.197,0.285 -0.148,0.403 -0.132,0.19 -0.305,0.305 -0.368,0.012 -0.175,-0.025 0.363,0.342 0.314,0.23 0.65,-0.418 0.162,-0.329 0.123,-0.191 0.206,-0.042 0.308,0.064 0.119,0.241 0.067,0.294 -0.223,0.08 -0.108,0.218 -0.076,0.207 0.388,0.266 0.199,0.169 0.24,-0.004 0.277,0.041 0.21,0.391 0.196,0.451 0.232,-0.125 0.145,-0.118 0.248,0.113 0.27,0.355 0.219,0.403 0.022,0.17 0.168,0.078 0.159,-0.12 0.076,-0.17 -0.006,-0.313 -0.043,-0.494 -0.111,-0.075 -0.253,0.268 -0.144,-0.194 -0.194,-0.206 0.003,-0.199 0.211,-0.099 0.179,0.043 h 0.224 l 1.182,-0.173 1.512,-1.585 0.662,-0.581 0.688,-0.431 0.712,-0.277 0.371,-0.089 1.912,-0.149 0.995,0.048 0.512,-0.109 0.237,-0.146 0.402,-0.399 0.282,-0.244 0.346,-0.068 0.084,-0.298 10e-4,-0.319 0.066,-0.333 -0.101,-0.625 0.027,-0.821 0.078,-0.428 0.209,-0.601 0.092,-0.617 0.094,-0.874 0.083,-0.518 0.104,-0.473 0.271,-0.521 0.23,-0.337 0.543,-1.268 0.188,-0.125 h 0.157 l 0.068,-0.077 0.021,-0.07 -0.046,-0.051 -0.069,-0.147 0.046,-0.119 0.165,-0.118 0.052,0.045 0.084,-0.025 0.013,-0.065 -0.078,-0.347 0.114,-0.486 0.139,-0.849 0.157,-0.381 0.093,-0.303 0.363,-0.455 0.397,-0.448 -0.113,-0.048 -0.186,-0.034 0.12,-0.107 0.095,-0.032 0.121,0.071 0.1,-0.197 0.022,-0.309 0.097,-0.456 -0.086,-0.397 0.184,-0.124 0.209,-0.075 0.088,-0.416 0.058,-0.167 0.13,-0.155 0.218,-0.331 0.171,-0.345 0.405,-0.658 0.396,-0.269 0.59,-0.208 0.066,-0.119 -0.15,-0.073 0.006,-0.072 h 0.222 l 0.09,-0.23 0.234,-0.17 0.391,-0.392 0.13,-0.36 0.081,-0.288 0.039,-0.651 0.636,-0.854 0.443,-1.153 0.107,-0.739 0.11,-0.399 0.074,-0.584 -0.067,-0.608 0.019,-0.509 0.442,-1.292 0.101,-0.533 0.136,-0.342 0.209,-1.273 0.004,-0.66 0.32,-0.768 0.399,-0.625 0.034,-0.578 -0.134,-0.444 z m -65.797,-48.962 0.522,-0.151 0.52,0.182 0.291,-0.054 -0.01,-0.123 -0.064,-0.103 -0.106,-0.097 -0.231,-0.067 -0.074,-0.249 -0.133,-0.234 -0.024,-0.256 -0.105,-0.236 h -0.124 l -0.123,0.067 -0.276,0.333 0.097,0.182 0.029,0.333 -0.164,0.11 -0.188,-0.046 -0.081,0.304 0.094,0.108 z m -47.708,41.786 -10e-4,-0.216 -0.1,-0.209 -0.319,-0.913 -0.1,0.035 -0.108,0.119 0.157,0.66 0.539,0.967 0.074,-0.128 -0.097,-0.246 z m 6.332,-15.474 0.163,-0.233 0.031,-0.213 -0.064,-0.144 -0.225,0.233 -0.129,0.193 0.026,0.118 z m 25.64,-15.989 0.1,0.025 0.105,-0.082 0.022,-0.131 -0.114,-0.132 -0.038,-0.117 -0.089,-0.008 -0.043,0.072 -0.06,0.139 0.115,0.122 z m 1.893,-2.431 -0.015,-0.078 0.013,-0.224 -0.107,-0.054 -0.119,0.104 -0.073,0.288 0.122,0.144 z m 62.175,92.398 -0.071,0.131 -0.023,0.118 -0.064,0.063 0.117,0.083 0.031,0.188 0.064,0.032 h 0.176 l -0.104,-0.47 z m -0.113,0.767 -0.08,-0.005 -0.14,0.198 -0.04,0.157 -0.06,0.03 -0.039,0.11 -0.061,0.086 -0.164,-0.067 10e-4,0.07 0.137,0.266 0.218,-0.065 0.218,0.068 0.132,-0.4 -0.038,-0.195 z m 2.331,-2.538 -0.197,-0.087 -0.141,0.18 0.023,0.087 -0.004,0.196 0.053,0.017 0.157,-0.034 -0.011,-0.113 0.193,-0.11 z m -28.666,-24.877 -0.261,0.124 -0.672,-0.081 0.005,-0.057 0.104,-0.226 -0.142,-0.125 -0.153,-0.052 -0.551,-0.043 -0.68,0.245 -1.271,0.293 -0.168,0.206 -0.107,0.281 0.137,0.156 0.465,0.338 0.442,0.046 0.317,-0.079 0.342,0.053 0.174,-0.196 0.484,0.133 0.186,0.187 0.398,-0.165 0.09,-0.307 0.137,-0.139 0.462,-0.104 0.495,0.137 0.153,-0.024 0.16,-0.167 -0.216,-0.335 z m 17.378,14.355 -0.083,-0.535 -0.254,-0.21 -0.146,0.013 -0.027,0.27 -0.168,0.152 -0.049,0.138 0.009,0.313 -0.074,0.291 0.138,0.29 -0.033,0.293 0.064,0.206 0.082,-0.015 0.3,-0.138 0.217,-0.205 0.081,-0.25 -0.098,-0.291 z m -57.605,-86.254 -0.002,-0.029 -0.063,-0.005 0.002,0.029 z"
       title="Australia"
       id="AU"
       inkscape:connector-curvature="0" />
  </g>
  <g
     inkscape:groupmode="layer"
     id="layer3"
     inkscape:label="fiji"
     sodipodi:insensitive="true">
    <path
       style=""
       d="m 971.98475,498.0674 -0.11,0.029 -0.177,-0.024 -0.036,-0.046 0.056,-0.01 0.116,-0.03 0.142,0.015 0.025,0.03 z m 8.201,10.49 -0.123,0.056 v -0.036 -0.009 l 0.086,-0.078 h 0.069 z m 0.075,1.027 -0.198,0.108 v -0.149 l 0.158,-0.138 0.12,-0.029 -0.074,0.139 z m 2.731,2.245 -0.071,0.1 -0.062,-0.036 0.079,-0.168 0.012,-0.072 -0.122,-0.088 -0.008,-0.062 0.036,-0.038 0.146,0.099 0.089,0.077 0.018,0.042 -0.027,0.075 z m 1.979,1.99 -0.156,0.031 -0.142,-0.125 0.09,-0.132 0.126,0.031 0.072,0.128 z m -2.068,0.07 -0.085,0.044 -0.059,-0.01 -0.069,-0.047 -0.042,-0.083 0.088,-0.07 0.136,0.079 z m 0.635,0.755 -0.033,0.054 -0.15,-0.088 -0.058,-0.06 0.16,-0.046 0.078,0.015 z m -2.913,2.079 0.007,0.087 -0.042,-0.005 -0.05,-0.037 -0.025,0.018 -0.018,0.027 -0.009,0.061 -0.007,0.034 -0.039,-0.012 -0.007,-0.06 0.013,-0.042 0.019,-0.062 0.07,-0.056 z m 3.55,0.666 -0.031,0.027 -0.077,-0.03 -0.063,-0.041 -0.008,-0.042 0.026,-0.054 0.061,-0.028 0.031,0.011 -0.018,0.018 -0.037,0.019 0.006,0.053 0.048,0.032 0.046,0.009 z m -0.496,4.457 0.006,0.008 -0.016,-0.001 -0.022,-0.01 -0.018,-0.02 -0.004,-0.022 0.009,-0.022 0.009,10e-4 0.015,0.02 0.014,0.022 z m -3.618,-13.233 -0.424,0.387 -0.152,0.2 -0.129,0.221 -0.361,0.237 -0.154,0.318 0.011,0.321 0.362,-0.336 0.403,-0.274 0.124,-0.056 0.127,0.003 -0.011,0.094 -0.058,0.093 -0.045,0.243 0.106,0.226 -0.301,-0.022 -0.298,0.019 -0.353,0.126 -0.347,0.056 -0.13,10e-4 -0.124,-0.042 -0.081,-0.065 -0.063,-0.15 -0.064,-0.022 -0.275,0.007 -0.412,0.294 -0.137,0.252 -0.158,0.011 -0.188,-0.052 -0.227,0.193 -0.271,0.069 -0.116,-0.164 -0.076,-0.2 -0.097,-0.147 -0.298,-0.037 0.046,-0.18 0.079,-0.074 0.072,-0.107 0.044,-0.122 0.143,0.077 0.146,0.05 0.163,-0.091 0.17,-0.008 0.17,-0.266 0.267,-0.167 0.367,-0.132 0.374,-0.094 0.193,-0.019 0.185,-0.054 0.325,-0.25 0.215,-0.128 0.234,-0.077 0.224,-0.045 0.207,0.04 0.167,-0.021 0.426,-0.178 z m 0.002,1.08 -0.036,0.003 -0.007,-0.056 0.043,-0.097 z m 0.391,0.431 -0.092,0.036 -0.299,0.248 v 0 l -0.193,0.263 -0.096,0.256 0.081,0.106 0.208,-0.109 0.07,-0.111 0.301,-0.217 0.128,-0.248 z m -8.153,1.338 -0.145,0.049 0.077,-0.232 0.081,-0.073 0.052,-0.015 0.083,-0.016 -0.032,0.164 z m 6.141,0.642 -0.094,0.079 -0.044,-0.402 0.097,0.003 0.07,0.042 0.04,0.102 z m -3.205,0.015 v 0.129 l 0.082,0.056 0.082,0.009 0.202,0.248 0.315,0.213 0.192,0.163 0.011,0.139 -0.059,0.147 0.082,0.264 0.039,0.273 0.14,0.434 -0.197,0.083 -0.311,0.01 -0.072,0.078 -0.105,-0.043 -0.258,0.033 -0.246,0.143 -0.234,0.194 h -0.271 l -0.305,0.04 -0.304,-0.027 -0.214,-0.104 -0.377,-0.113 -0.503,-0.096 -0.208,-0.081 -0.174,-0.126 -0.162,-0.319 -0.024,-0.158 0.025,-0.151 0.147,-0.051 0.123,-0.076 0.017,-0.1 0.055,-0.07 0.07,-0.025 0.035,-0.048 -0.05,-0.162 -0.014,-0.147 0.292,-0.27 0.317,-0.23 0.562,-0.212 0.343,0.02 0.526,-0.163 0.169,-0.077 0.167,0.047 z m 1.536,1.044 -0.145,0.052 -0.08,-0.179 0.11,-0.18 0.124,-0.016 0.061,0.183 z m 1.464,1.095 -0.025,0.024 -0.243,-0.234 0.008,-0.093 0.043,-0.083 0.098,-0.078 0.088,0.133 0.069,0.222 z m -2.417,2.565 -10e-4,0.127 -0.361,0.084 -0.121,-0.104 -0.078,-0.019 -0.215,0.186 -0.063,0.076 -0.021,0.057 -0.056,0.029 -0.396,0.089 -0.174,-0.089 0.117,-0.06 0.145,-0.121 0.146,0.018 0.146,-0.113 0.146,-0.172 0.207,-0.037 0.146,-0.066 0.241,0.048 z m -10.829,8.096 -0.021,0.033 -0.081,-0.011 -0.016,-0.067 0.047,-0.038 0.066,0.025 z"
       title="Fiji"
       id="FJ"
       inkscape:connector-curvature="0" />
  </g>
  <g
     inkscape:groupmode="layer"
     id="layer4"
     inkscape:label="cook islas"
     sodipodi:insensitive="true" />
  <g
     inkscape:groupmode="layer"
     id="layer5"
     inkscape:label="islas marianas del norte"
     sodipodi:insensitive="true" />
  <g
     inkscape:groupmode="layer"
     id="layer6"
     inkscape:label="marshall islas"
     sodipodi:insensitive="true" />
  <g
     inkscape:groupmode="layer"
     id="layer7"
     inkscape:label="islas pitcairn"
     sodipodi:insensitive="true" />
  <g
     inkscape:groupmode="layer"
     id="layer8"
     inkscape:label="islas salomon"
     sodipodi:insensitive="true">
    <path
       style=""
       d="m 916.88075,483.4134 0.089,0.099 -0.217,0.168 -0.286,-0.091 -0.063,-0.095 -0.007,-0.05 -0.2,0.032 -0.397,-0.083 -0.554,-0.402 -0.586,-0.757 -0.563,-0.419 -0.105,-0.13 -0.014,-0.216 0.076,-0.083 0.35,0.09 0.453,0.346 0.743,0.359 0.202,0.183 0.129,0.439 0.126,0.131 0.401,0.337 0.212,0.079 0.112,0.015 z m -4.622,-0.655 -0.282,0.067 -0.174,-0.09 0.077,-0.214 0.096,-0.111 0.353,0.197 z m 11.335,4.044 0.005,0.065 -0.377,-0.235 -0.286,-0.288 -0.815,-0.313 -0.175,-0.161 -0.147,-0.02 -0.418,-0.262 -0.411,-0.177 -0.25,-0.228 -0.064,-0.093 -0.15,-0.056 -0.258,-0.25 -0.251,-0.166 -0.089,-0.303 -0.242,-0.208 -0.061,-0.091 0.777,0.168 0.36,0.332 0.308,0.188 0.107,0.136 0.277,0.187 0.249,0.017 0.249,0.188 0.227,0.05 0.179,0.098 1.155,0.839 -0.138,0.223 0.153,0.162 z m -8.956,-1.722 -0.054,0.039 -0.094,-0.152 -0.068,-0.047 0.002,-0.169 -0.283,-0.275 -0.023,-0.19 0.164,-0.186 0.221,0.108 0.219,0.234 0.257,0.076 -0.053,0.155 -0.231,0.279 z m 1.359,0.521 -0.062,0.042 -0.306,-0.016 -0.232,-0.291 0.002,-0.215 0.183,-0.197 0.221,-0.035 0.121,0.076 0.112,0.165 0.041,0.21 -0.025,0.186 z m -1.595,0.179 -0.034,0.07 -0.146,-0.348 0.007,-0.175 0.025,-0.112 0.054,-0.034 0.118,0.387 z m 3.255,0.199 0.176,0.23 0.203,0.514 -0.037,0.177 -0.145,0.01 -0.041,0.111 -0.196,-0.25 -0.262,-0.067 -0.191,-0.153 -0.065,-0.303 -0.019,-0.191 -0.15,-0.033 -0.43,0.048 -0.137,0.163 -0.196,-0.052 -0.042,-0.147 0.03,-0.144 0.262,-0.142 0.054,-0.183 0.26,-0.314 0.161,-0.054 0.304,0.113 0.037,0.447 0.109,0.146 z m 8.38,0.202 0.696,0.84 -0.027,0.149 -0.095,0.096 -0.027,0.282 0.088,0.108 0.19,0.05 0.323,0.301 0.129,0.369 0.012,0.113 0.135,0.167 0.005,0.353 0.307,0.49 0.027,0.236 -0.028,0.106 -0.128,-0.062 -0.367,-0.556 -0.42,-0.24 -0.048,-0.103 -0.424,-0.324 -0.284,-0.545 -0.308,-0.968 0.145,-0.229 -0.347,-0.469 0.017,-0.125 0.146,0.029 0.102,-0.006 0.049,-0.056 z m -2.98,0.547 -0.134,0.038 -0.199,-0.104 -0.086,-0.094 0.041,-0.147 0.116,-0.056 0.132,0.099 0.014,0.101 z m -6.451,0.58 v 0.041 l -0.155,-0.079 -0.341,-0.381 0.061,-0.127 0.313,-0.247 0.096,-0.033 0.088,0.153 -0.076,0.226 -0.103,0.057 -0.042,0.212 z m 2.018,-0.083 -0.276,0.223 -0.202,-0.075 -0.163,-0.191 0.054,-0.23 0.03,-0.061 0.081,-0.013 0.081,-0.047 0.088,-0.102 0.301,0.081 0.074,0.056 -0.179,0.141 0.06,0.045 0.039,0.067 z m 0.26,0.388 -0.063,0.011 -0.065,-0.112 0.153,-0.304 0.074,0.245 0.048,0.092 z m -1.559,-0.177 -0.006,0.099 -0.161,-0.031 -0.358,-0.149 -0.013,-0.068 0.204,-0.025 0.148,0.019 0.124,0.087 z m 4.331,1.029 -0.037,0.007 -0.132,-0.035 -0.16,-0.011 -0.098,-0.098 0.116,-0.14 0.146,-0.091 0.067,0.023 0.063,0.059 0.147,0.022 0.016,0.18 z m 2.749,-0.362 0.162,0.04 0.078,-0.006 0.185,0.152 0.247,0.224 -0.101,0.116 -0.201,-0.06 -0.067,0.024 -0.021,-0.016 -0.042,-0.112 -0.219,-0.111 -0.196,-0.009 -0.025,-0.132 z m -1.172,0.783 0.618,0.454 0.266,-0.042 0.812,0.008 0.479,0.324 0.281,0.149 0.158,0.29 0.195,0.066 0.12,0.148 0.069,0.27 -0.049,0.044 -0.248,0.101 -0.18,0.042 -0.471,-0.096 -0.45,-0.208 -0.895,-0.025 -0.417,-0.059 -0.144,-0.079 -0.133,-0.106 -0.21,-0.252 -0.164,-0.296 -0.027,-0.174 -0.014,-0.33 0.051,-0.121 0.171,-0.12 z m 5.044,0.998 0.031,0.303 -0.014,0.104 -0.213,-0.222 -0.1,0.079 -0.093,-0.105 0.007,-0.23 0.015,-0.245 -0.042,-0.186 -0.106,-0.268 0.119,0.043 z m 0.471,2.156 0.353,0.167 0.206,-0.028 0.305,0.115 0.231,-0.065 0.145,0.148 0.365,0.579 0.003,0.188 0.239,0.134 -0.202,0.025 -0.281,-0.069 -0.218,0.047 -0.228,-0.112 -0.384,-0.058 -0.334,-0.135 -0.698,-0.427 0.004,-0.213 -0.113,-0.104 -0.033,-0.264 -0.25,-0.083 -0.292,-0.016 -0.023,-0.125 0.054,-0.221 0.218,0.003 0.262,0.092 0.5,0.322 0.124,0.055 z m 12.398,1.051 -0.224,0.049 -0.071,-0.014 -0.168,0.026 -0.181,0.205 -0.133,-0.029 -0.104,0.008 -0.079,-0.168 -0.002,-0.082 0.128,0.013 0.067,-0.164 0.138,-0.082 0.322,-0.038 0.286,0.054 0.102,0.037 -0.09,0.148 z m -15.596,2.957 -0.195,0.098 -0.179,-0.049 -0.136,-0.074 -0.11,-0.219 -0.238,-0.137 -0.339,-0.057 -0.139,-0.095 -0.036,-0.047 -0.235,-0.042 -0.067,-0.119 0.02,-0.123 0.038,-0.065 0.217,0.06 1.043,0.578 0.248,0.179 z m 17.831,-0.378 -0.248,0.046 -0.099,-0.011 -0.164,-0.246 0.122,-0.056 0.182,0.021 0.055,0.145 z"
       title="Solomon Islands"
       id="SB"
       inkscape:connector-curvature="0" />
  </g>
  <g
     inkscape:groupmode="layer"
     id="layer9"
     inkscape:label="kiribati"
     sodipodi:insensitive="true" />
  <g
     inkscape:groupmode="layer"
     id="layer10"
     inkscape:label="micronesia"
     sodipodi:insensitive="true">
    <path
       style=""
       d="m 1006.0897,503.3594 -0.121,0.025 -0.144,-0.137 0.28,-0.104 0.089,-0.054 0.34,0.027 -0.203,0.045 z"
       title="American Samoa"
       id="AS"
       inkscape:connector-curvature="0" />
    <path
       style=""
       d="m 746.67575,497.1434 0.033,0.015 0.043,-0.015 0.018,0.018 -0.067,0.028 -0.042,-0.051 -0.02,-0.083 -0.005,-0.07 h 0.019 v 0.028 l 0.005,0.023 0.015,0.046 -0.011,0.031 z m 0.219,0.035 -0.032,0.016 -0.028,-0.012 -0.008,-0.009 -0.003,-0.015 0.032,-0.002 0.025,-0.014 0.016,-0.024 0.005,-0.034 0.013,0.033 -0.002,0.033 z"
       title="Cocos  (Keeling)  Islands"
       id="CC"
       inkscape:connector-curvature="0" />
    <path
       style=""
       d="m 771.61175,492.3404 -0.08,0.202 -0.147,-0.111 -0.169,-0.036 0.033,-0.15 0.139,-0.021 0.069,-0.008 0.099,-0.053 z"
       title="Christmas Island"
       id="CX"
       inkscape:connector-curvature="0" />
    <path
       style=""
       d="m 862.59175,436.3134 -0.213,0.23 -0.014,-0.075 0.064,-0.138 0.09,-0.157 0.084,-0.094 0.109,-0.027 0.078,0.13 -0.088,0.113 z m 38.557,5.831 -0.049,0.015 -0.022,-0.014 0.011,-0.072 0.016,-0.025 0.046,-0.002 0.08,0.02 0.006,0.018 z m -0.656,0.241 -0.023,0.037 -0.171,-0.014 -0.024,-0.021 0.015,-0.016 0.082,-0.017 0.01,-0.051 -0.042,-0.011 0.036,-0.027 0.067,-0.005 0.038,0.032 0.021,0.046 z m 18.711,1.496 -0.163,0.063 -0.205,-0.029 -0.063,-0.229 -0.094,-0.061 0.021,-0.113 0.144,-0.092 0.305,0.075 0.113,0.163 -0.072,0.108 z m 13.101,4.172 0.029,0.136 -0.179,-0.066 -0.024,-0.048 0.104,-0.048 z"
       title="Federated States of Micronesia"
       id="FM"
       inkscape:connector-curvature="0" />
    <path
       style=""
       d="m 881.11175,425.6204 -0.119,0.005 -0.103,-0.096 -0.036,-0.065 -0.002,-0.33 0.396,-0.281 0.13,-0.274 0.109,0.022 0.096,0.045 0.088,0.082 -0.453,0.457 z"
       title="Guam"
       id="GU"
       inkscape:connector-curvature="0" />
    <path
       style=""
       d="m 681.75475,638.7484 -0.335,0.222 -0.345,-0.002 -0.147,-0.174 -0.215,-0.545 -0.143,-0.039 -0.089,-0.15 -0.007,-0.063 0.152,-0.044 0.232,0.156 0.555,0.126 0.408,0.299 0.3,0.101 -0.12,0.08 z"
       title="Heard Island and McDonald Islands"
       id="HM"
       inkscape:connector-curvature="0" />
    <path
       style=""
       d="m 678.34275,483.5454 -0.065,0.112 -0.111,0.051 -0.061,-0.283 -0.162,-0.2 h 0.065 l 0.153,0.102 0.055,0.27 0.057,-0.079 -0.015,-0.084 0.033,-0.079 -0.023,-0.088 -0.084,-0.135 0.029,-0.028 0.134,0.116 0.014,0.093 z"
       title="British Indian Ocean Territory"
       id="IO"
       inkscape:connector-curvature="0" />
    <path
       style=""
       d="m 943.27075,431.6294 -0.073,0.02 -0.055,-0.02 0.04,-0.037 0.082,-0.006 0.031,0.01 z m 5.445,10.861 -0.041,0.043 -0.271,-0.026 -0.124,-0.054 0.012,-0.041 0.214,0.039 z m 6.375,0.48 0.352,0.144 0.468,-0.067 -0.075,0.043 -0.175,0.04 -0.116,0.035 h -0.078 l -0.093,-0.014 -0.3,-0.1 -0.168,-0.132 0.041,-0.044 z m 1.334,0.253 0.104,0.061 0.207,-0.004 0.191,0.155 -0.073,-0.01 -0.104,-0.066 -0.095,-0.028 -0.128,0.008 -0.06,-0.025 z m -5.451,3.418 -0.056,0.084 -0.069,-0.006 0.061,-0.063 0.042,-0.088 0.067,-0.25 0.139,-0.089 0.096,-0.104 -0.023,0.108 -0.15,0.113 z"
       title="Marshall Islands"
       id="MH"
       inkscape:connector-curvature="0" />
    <path
       style=""
       d="m 883.82475,409.6444 -0.086,0.11 -0.071,-0.081 -0.02,-0.16 0.125,0.015 0.046,0.033 z m 0.193,2.01 -0.136,0.064 0.169,-0.289 0.051,-0.05 0.079,0.105 z m -0.183,5.08 -0.062,0.02 -0.089,-0.01 -0.063,-0.046 -0.014,-0.077 0.181,-0.004 0.067,0.058 z m 0.112,3.495 -0.008,0.075 -0.144,-0.018 -0.039,-0.034 0.081,-0.261 0.206,-0.12 0.1,-0.024 -0.094,0.124 -0.018,0.139 z m -0.252,0.47 -0.116,0.147 -0.082,-0.229 -0.014,-0.092 0.106,-0.084 0.063,0.001 z m -1.115,2.341 -0.14,0.134 -0.1,-0.027 -0.063,-0.046 -0.015,-0.077 0.226,-0.074 0.092,0.026 z"
       title="Northern Mariana Islands"
       id="MP"
       inkscape:connector-curvature="0" />
    <path
       style=""
       d="m 681.20675,451.3024 -0.049,0.026 -0.046,-0.01 -0.016,-0.033 0.023,-0.048 0.038,-0.063 0.026,-0.068 0.038,-0.036 0.029,0.012 -0.003,0.038 -0.014,0.052 -0.009,0.068 z m -0.269,2.607 -0.06,0.005 -0.037,-0.048 0.008,-0.069 0.047,-0.049 0.073,-0.003 0.042,0.043 -0.021,0.067 z"
       title="Maldives"
       id="MV"
       inkscape:connector-curvature="0" />
    <path
       style=""
       d="m 946.21575,547.5604 0.056,0.033 0.052,0.019 0.034,0.025 -0.005,0.054 -0.026,0.054 -0.032,0.023 -0.01,0.007 -0.007,0.011 -0.003,0.011 v 0.014 l -0.016,-0.045 -0.03,-0.03 -0.029,-0.003 -0.021,0.035 h -0.017 l -0.006,-0.036 -0.012,-0.031 -0.005,-0.03 0.012,-0.024 0.022,-0.029 0.001,-0.024 -0.017,-0.011 -0.035,0.01 0.041,-0.046 z"
       title="Norfolk Island"
       id="NF"
       inkscape:connector-curvature="0" />
    <path
       style=""
       d="m 943.46275,464.3614 -0.055,0.096 -0.064,-0.012 -0.026,-0.064 0.019,-0.068 0.071,-0.027 0.047,0.021 z"
       title="Nauru"
       id="NR"
       inkscape:connector-curvature="0" />
    <path
       style=""
       d="m 1008.6787,517.1444 -0.281,0.162 -0.125,-0.192 0.111,-0.244 0.132,-0.063 0.078,-0.008 0.114,0.226 z"
       title="Niue"
       id="NU"
       inkscape:connector-curvature="0" />
    <path
       style=""
       d="m 852.63475,442.2854 -0.17,0.06 -0.08,-0.215 0.027,-0.25 0.112,-0.192 0.123,-0.061 0.024,-0.022 0.12,-0.249 0.023,0.137 -0.075,0.456 -0.098,0.177 z m -9.606,12.196 -0.063,0.012 -0.041,-0.009 0.005,-0.04 0.042,-0.041 0.058,-0.018 0.044,0.014 -0.005,0.038 z"
       title="Palau"
       id="PW"
       inkscape:connector-curvature="0" />
    <path
       style=""
       d="m 1001.1707,486.9334 -0.013,0.006 -0.013,-0.032 -0.017,-0.035 -0.013,-0.032 v -0.004 l 0.027,0.027 0.018,0.032 0.01,0.038 z m 3.628,2.187 -0.01,0.008 -0.013,-0.017 -0.02,-0.022 -0.013,-0.032 0.01,-0.002 0.021,0.018 0.015,0.022 z"
       title="Tokelau"
       id="TK"
       inkscape:connector-curvature="0" />
    <path
       style=""
       d="m 990.00875,462.3014 -0.015,0.02 -0.017,-0.011 z"
       title="Baker Island"
       id="UM-FQ"
       inkscape:connector-curvature="0" />
    <path
       style=""
       d="m 989.51775,460.7044 -0.014,0.014 -0.02,-0.009 10e-4,-0.041 0.028,-0.001 z"
       title="Howland Island"
       id="UM-HQ"
       inkscape:connector-curvature="0" />
    <path
       style=""
       d="m 1009.4647,415.5964 -0.042,0.018 v -0.016 z"
       title="Johnston Atoll"
       id="UM-JQ"
       inkscape:connector-curvature="0" />
    <path
       style=""
       d="m 987.39275,380.9274 -0.014,0.007 -0.007,-0.011 0.022,-0.085 0.04,-0.023 0.036,0.004 -0.01,0.052 z"
       title="Midway Islands"
       id="UM-MQ"
       inkscape:connector-curvature="0" />
    <path
       style=""
       d="m 942.62175,408.1084 -0.045,0.01 -0.082,-0.052 -0.014,-0.029 0.053,-0.052 0.064,0.021 0.024,0.017 0.009,0.041 z"
       title="Wake Island"
       id="UM-WQ"
       inkscape:connector-curvature="0" />
  </g>
  <g
     inkscape:groupmode="layer"
     id="layer11"
     inkscape:label="nauru"
     sodipodi:insensitive="true" />
  <g
     inkscape:groupmode="layer"
     id="layer12"
     inkscape:label="niue"
     sodipodi:insensitive="true" />
  <g
     inkscape:groupmode="layer"
     id="layer13"
     inkscape:label="nueva calcedonia"
     sodipodi:insensitive="true">
    <path
       style=""
       d="m 923.79875,517.8204 -0.044,0.063 -0.022,-0.469 0.089,-0.176 0.043,0.365 z m 11.928,2.77 0.316,0.187 0.34,-0.08 0.427,0.294 1.088,0.894 0.382,0.189 0.225,0.072 0.17,0.146 0.152,0.207 0.207,0.146 0.09,0.136 0.022,0.184 0.075,0.113 0.379,0.297 0.226,0.261 0.314,0.133 0.135,0.156 0.176,0.076 0.18,0.16 0.304,0.125 0.689,0.46 0.532,0.437 0.266,0.271 0.286,0.241 0.366,0.193 0.344,0.22 0.173,0.516 -0.095,0.185 -0.197,0.092 -0.183,0.007 -0.171,0.062 -0.571,-0.333 -0.136,-0.049 -0.152,0.021 -0.085,-0.074 -0.06,-0.106 -0.349,-0.124 -0.324,-0.198 -0.094,-0.135 -0.055,-0.168 -0.078,-0.096 -0.457,-0.146 -0.308,-0.163 -0.224,-0.229 -0.347,-0.16 -0.541,-0.328 -0.277,-0.105 -0.243,-0.164 -0.65,-0.595 -0.232,-0.111 -0.202,-0.264 -0.561,-0.627 -0.271,-0.257 -0.294,-0.229 -0.225,-0.268 -0.173,-0.318 -0.402,-0.455 -0.049,-0.194 0.017,-0.199 -0.097,-0.128 -0.164,-0.078 -0.078,-0.134 0.009,-0.181 0.054,-0.093 z m 6.58,1.348 -0.149,0.029 0.18,-0.273 0.006,-0.167 0.072,-0.33 -0.009,-0.11 0.119,0.014 0.129,0.095 -0.148,0.082 -0.05,0.143 0.006,0.178 0.057,0.033 -0.095,0.195 z m 2.397,1.38 -0.153,0.024 -0.205,-0.216 -0.391,-0.108 -0.172,-0.189 -0.112,-0.223 0.222,-0.055 0.218,-0.3 -0.148,-0.111 -0.256,-0.02 0.029,-0.117 0.416,-0.139 0.183,0.081 0.081,0.095 -0.012,0.475 0.188,0.151 0.195,0.338 v 0.095 z m 1.713,0.806 0.131,0.056 0.229,-0.01 -0.052,0.512 -0.321,0.082 -0.11,-0.004 -0.072,-0.108 -0.184,-0.071 0.009,-0.175 -0.178,-0.393 0.31,-0.06 0.176,-0.105 -0.01,0.096 0.027,0.111 z m -1.31,3.592 -0.089,0.114 -0.11,-0.023 -0.084,-0.043 -0.061,-0.062 0.061,-0.233 0.241,0.114 z"
       title="New Caledonia"
       id="NC"
       inkscape:connector-curvature="0" />
  </g>
  <g
     inkscape:groupmode="layer"
     id="layer14"
     inkscape:label="nueva zelanda"
     sodipodi:insensitive="true">
    <path
       style=""
       d="m 990.79075,598.9554 -0.101,0.101 -0.172,-0.005 -0.301,0.395 0.019,-0.295 -0.09,-0.115 -0.258,0.027 -0.049,0.065 0.173,0.078 0.038,0.043 -0.165,0.171 0.172,0.367 0.15,-0.013 0.146,0.287 -10e-4,0.09 -0.334,0.111 -0.176,0.155 -0.157,-0.006 -0.074,-0.03 -0.088,-0.277 -0.007,-0.116 0.193,-0.203 0.109,-0.207 -0.088,-0.19 -0.223,-0.123 -0.486,0.056 -0.112,-0.041 0.243,-0.256 0.264,0.028 0.284,-0.184 z m 0.003,2.262 -0.124,0.034 0.018,-0.223 -0.042,-0.144 0.21,-0.047 0.09,0.171 z m -29.619,-34.16 0.042,0.156 0.155,-0.111 0.116,-0.175 0.187,-0.178 -0.025,0.287 0.096,0.063 0.62,0.2 0.128,0.167 0.132,0.048 0.074,-0.094 0.088,-0.051 0.224,0.105 0.506,0.292 0.042,0.101 -0.026,0.15 0.025,0.159 0.069,0.127 0.168,0.029 0.224,-0.188 0.105,-0.023 0.148,0.267 0.056,0.151 -0.023,-0.005 0.097,0.15 0.128,0.148 0.221,0.439 -0.033,0.154 -0.065,0.139 0.203,0.407 -0.133,0.028 -0.399,-0.069 0.013,0.082 0.233,0.299 0.196,0.423 0.157,0.255 0.554,0.793 -0.083,0.282 0.013,0.187 -0.071,0.161 0.189,0.422 -0.118,0.131 -0.078,0.433 -0.086,0.076 0.011,0.158 0.224,0.042 0.135,0.067 0.116,0.129 0.072,-0.155 0.098,-0.042 0.267,0.207 0.556,0.207 0.153,0.077 0.075,0.167 0.057,0.404 0.108,0.178 0.213,0.034 0.229,-0.054 0.072,-0.147 -0.046,-0.396 -0.165,-0.632 -0.001,-0.205 0.023,-0.206 -0.038,-0.204 -0.083,-0.192 -0.089,-0.147 -0.114,-0.124 0.04,-0.193 0.171,-0.087 0.104,0.163 0.085,0.197 0.431,0.584 0.255,-0.041 0.023,0.242 0.173,0.246 0.096,0.289 0.126,0.865 0.193,0.817 0.35,0.356 0.041,0.171 -0.213,-0.088 -0.065,0.051 0.022,0.086 0.197,0.157 0.232,0.077 0.146,-0.011 0.137,0.057 0.907,0.534 0.436,0.208 1.1,0.341 0.314,0.027 0.174,-0.009 0.329,-0.118 0.295,-0.212 0.255,-0.317 0.22,-0.361 0.239,-0.175 0.271,-0.138 0.137,-0.128 0.144,-0.091 0.737,0.042 0.249,0.182 0.323,0.146 0.169,0.114 -0.057,0.232 -0.193,0.342 -0.148,0.375 -0.132,0.854 -0.089,0.866 -0.134,0.383 -0.244,0.295 -0.27,0.216 -0.305,0.102 -0.124,0.495 -0.061,0.581 0.018,0.146 0.098,0.116 0.04,0.173 -0.16,0.35 -0.093,-0.051 -0.132,-0.292 -0.119,-0.122 -0.366,-0.091 -0.373,-0.042 -0.323,0.026 -0.312,0.125 -0.471,0.253 -0.146,0.128 -0.128,0.163 -0.216,0.364 -0.052,0.446 0.01,0.234 0.077,0.181 0.401,0.247 -0.398,0.864 -0.353,0.902 -0.2,0.258 -0.23,0.239 -0.217,0.545 -0.379,0.47 -0.256,0.36 -0.2,0.374 -0.175,0.398 -0.373,0.563 -0.165,0.373 -0.216,0.311 -0.402,0.397 -0.428,0.341 -0.674,0.472 -0.188,0.156 -0.198,0.115 -0.246,-0.135 -0.049,-0.147 -0.059,-0.323 -0.054,-0.118 -0.313,-0.098 -0.415,0.156 -0.069,-0.033 -0.018,-0.074 v -0.469 l 0.07,-0.132 -0.097,-0.073 -0.096,0.029 -0.033,0.12 0.061,0.104 -0.236,0.129 -0.246,0.003 -0.074,-0.051 -0.021,-0.086 0.06,-0.142 0.079,-0.125 0.457,-0.59 0.475,-0.781 0.409,-0.834 0.106,-0.428 0.15,-0.792 -0.123,-0.33 -0.152,-0.309 -0.411,-0.594 -0.549,-0.335 -0.355,-0.047 -0.336,-0.125 -0.316,-0.283 -0.288,-0.333 -0.571,-0.273 -0.602,-0.214 -0.343,-0.302 -0.082,-0.179 -0.054,-0.208 0.008,-0.193 0.043,-0.196 0.068,-0.15 0.107,-0.109 0.637,-0.389 0.675,-0.216 0.124,0.004 0.119,-0.035 0.169,-0.132 0.302,-0.302 0.088,-0.203 0.06,-0.644 0.097,-0.632 0.175,-0.723 0.264,-0.447 0.086,-0.274 -0.107,-0.451 0.099,-0.165 0.12,-0.1 0.136,-0.058 -0.23,-0.422 -0.271,-0.637 -0.057,-0.197 0.041,-0.195 0.066,-0.191 -0.169,-0.048 -0.098,-0.183 -0.243,-0.615 0.066,-0.098 0.141,0.066 0.209,0.443 0.034,-0.228 0.16,-0.141 0.17,-0.073 0.182,-0.016 -0.412,-0.494 -0.138,0.02 -0.182,0.079 -0.187,0.048 -0.183,-0.043 -0.171,-0.109 -0.088,-0.208 -0.107,-0.399 -0.067,-0.147 -0.542,-0.813 0.159,-0.026 0.438,0.407 0.085,-0.13 0.063,-0.187 -0.021,-0.208 -0.104,-0.158 -0.155,-0.102 -0.003,-0.185 0.118,-0.169 -0.007,-0.118 -0.251,-0.241 -0.1,-0.026 -0.045,0.112 0.072,0.167 -0.067,0.019 -0.609,-0.438 -0.188,-0.352 -0.154,-0.386 -0.016,0.157 0.023,0.221 0.241,0.443 0.391,0.496 0.067,0.132 -0.058,0.171 -0.136,0.049 -0.12,-0.108 -0.179,-0.425 -0.129,-0.212 -1.495,-2.184 0.191,-0.287 0.296,-0.242 0.068,-0.107 0.045,-0.131 -0.125,-0.022 -0.112,0.06 -0.128,0.111 -0.117,0.126 -0.148,0.281 -0.07,0.065 -0.175,-0.195 -0.067,-0.12 0.003,-0.144 -0.047,-0.091 -0.13,-0.029 -0.191,-0.286 -0.121,-0.146 0.202,-0.279 0.005,-0.367 -0.206,-0.384 -0.246,-0.353 -0.474,-0.569 -0.435,-0.601 0.471,-0.076 0.478,-0.013 -0.225,0.36 0.102,0.208 0.152,0.176 0.328,0.54 0.028,0.156 0.166,0.158 z m 6.38,4.621 0.022,0.189 -0.215,-0.067 -0.084,-0.143 -0.241,-0.148 -0.035,-0.044 -0.027,-0.287 0.127,-0.139 0.021,-0.059 0.056,-0.023 0.099,0.151 0.191,0.215 z m -6.813,17.94 0.323,0.018 0.301,-0.272 0.308,-0.221 0.323,-0.183 0.492,-0.419 0.129,-0.062 0.319,-0.08 0.139,-0.099 0.155,-0.023 -0.14,0.248 -0.176,0.083 -0.028,0.089 0.099,0.144 -0.153,0.201 0.006,0.251 -0.182,0.297 0.278,-0.122 0.103,-0.193 -0.053,-0.109 0.12,-0.216 0.187,-0.103 -0.074,-0.163 0.005,-0.129 0.229,0.048 0.113,-0.005 0.09,-0.051 0.165,-0.02 0.033,0.144 0.222,-0.018 -0.081,0.182 -0.169,0.211 -0.04,0.128 -0.271,0.213 -0.181,0.091 0.279,0.023 0.408,-0.285 0.242,-0.251 -0.007,0.314 -0.197,0.282 -0.168,0.178 -0.19,0.056 -0.189,0.145 -0.092,0.237 0.011,0.158 0.054,0.125 0.193,0.211 -0.217,0.408 0.242,-0.051 0.132,0.077 0.186,0.235 -0.112,0.272 -0.078,0.139 -0.472,0.575 -0.206,0.292 -0.241,0.187 0.003,0.307 -0.138,0.224 -0.704,0.769 -0.123,0.167 -0.555,1.229 -0.354,0.518 -0.203,0.177 -0.215,0.143 -0.515,0.245 -0.228,0.282 -0.251,0.234 -0.265,0.053 0.008,0.104 0.17,0.058 0.133,0.154 -0.099,0.173 -0.189,0.108 -0.196,0.031 -0.1,0.111 0.468,-0.079 0.132,0.09 0.024,0.191 0.05,0.172 0.113,0.228 0.394,0.146 0.354,0.068 0.069,0.106 0.053,0.365 -0.064,0.179 -0.079,0.118 -0.119,0.042 -0.288,0.023 -0.289,-0.083 -0.191,-0.221 -0.547,0.071 -0.146,0.047 -0.075,-0.04 0.303,-0.232 -0.158,-0.132 -0.132,-0.049 -0.143,0.077 -0.096,0.122 -0.028,0.2 -0.099,0.116 -0.15,0.033 -0.213,-0.167 -0.211,-0.238 -0.31,-0.24 0.048,0.148 0.238,0.363 0.119,0.241 -0.277,0.193 -0.29,0.15 -0.244,0.088 -0.23,0.138 -0.271,0.215 -0.149,0.076 -0.396,0.005 -0.212,0.068 -0.07,0.284 -0.148,0.181 -0.348,0.036 0.126,0.057 0.077,0.091 -0.23,0.858 -0.05,0.357 -0.043,0.612 -0.145,0.57 -0.413,-0.003 0.066,0.101 0.313,0.161 -0.059,0.243 -0.344,0.445 -0.144,0.257 -0.14,0.626 -0.21,0.579 -0.321,0.66 -0.003,0.119 0.113,0.169 0.137,0.146 0.008,0.206 -0.042,0.109 -0.153,0.028 -0.134,0.071 -0.716,0.182 -0.234,0.204 -0.193,0.366 -0.226,0.316 -0.752,0.702 -0.442,0.59 -0.089,0.169 -0.119,0.123 -0.967,0.28 -0.684,0.042 -0.372,-0.072 -0.359,-0.142 -0.199,-0.048 -0.38,0.087 -0.166,0.095 -0.298,-0.094 -0.236,0.071 -0.07,-0.069 -0.088,-0.173 0.049,-0.23 -0.065,-0.17 -0.15,-0.115 -0.101,-0.134 -0.115,-0.095 -0.314,-0.037 -0.496,0.06 -0.164,-0.006 -0.337,-0.563 -0.111,-0.138 -0.401,-0.179 -0.137,0.025 -0.215,0.3 -0.127,0.051 -0.754,0.032 -0.756,-0.097 -0.278,-0.112 -0.055,-0.259 0.574,-0.711 -0.17,0.095 -0.354,0.289 -0.226,-0.044 0.217,-0.315 0.019,-0.141 -0.045,-0.156 -0.295,0.265 -0.336,0.035 -0.043,-0.246 0.03,-0.285 0.068,-0.081 0.907,-0.149 0.327,-0.097 0.143,-0.153 -0.543,-0.052 -0.034,-0.214 0.078,-0.171 0.464,-0.284 -0.342,0.072 -0.379,-0.025 0.025,-0.3 0.099,-0.234 0.397,-0.007 -0.124,-0.161 -0.019,-0.224 0.11,-0.015 0.403,0.302 0.291,0.11 -0.123,-0.227 0.017,-0.143 0.077,-0.064 0.238,-0.045 -0.066,-0.04 -0.223,-0.058 -0.266,-0.172 -0.028,-0.182 0.01,-0.21 0.286,-0.289 0.169,0.172 0.2,-0.047 -0.153,-0.135 -0.093,-0.202 0.063,-0.133 0.607,-0.535 0.155,0.515 0.036,-0.171 0.009,-0.162 -0.073,-0.141 0.011,-0.142 0.07,-0.122 0.26,-0.121 0.338,-0.392 0.25,-0.182 0.203,0.117 0.139,0.157 -0.021,-0.156 -0.099,-0.129 -0.027,-0.359 0.454,-0.556 0.499,-0.528 0.479,-0.552 0.255,-0.2 0.543,-0.227 0.348,0.095 0.089,-0.018 0.516,-0.396 0.214,-0.103 0.195,0.141 0.12,0.051 -0.121,-0.362 0.095,-0.166 0.431,-0.292 0.54,-0.301 0.41,-0.125 0.302,-0.204 0.182,-0.005 -0.027,-0.154 0.031,-0.147 0.156,0.01 0.048,-0.058 -0.138,-0.08 0.445,-0.294 0.242,-0.325 0.126,-0.067 0.115,-0.098 0.142,-0.224 0.168,-0.074 0.156,0.035 0.113,0.11 -0.062,-0.183 -0.2,-0.104 0.215,-0.158 0.223,-0.11 0.217,0.079 0.213,0.128 -0.213,-0.196 -0.035,-0.121 0.259,-0.14 0.14,-0.043 0.196,0.262 -0.028,-0.208 0.046,-0.184 0.277,-0.301 0.363,-0.496 0.116,0.173 0.019,0.209 -0.018,0.253 0.075,-0.087 0.025,-0.229 -0.056,-0.403 0.454,-0.743 0.09,-0.083 0.1,-0.05 0.158,-0.02 -0.049,-0.112 -0.123,-0.108 0.124,-0.376 0.074,-0.429 0.105,-0.412 0.169,-0.402 0.185,-0.67 0.141,-0.14 0.381,-0.048 0.167,-0.094 0.278,-0.241 0.329,-0.436 0.176,-0.351 0.231,-0.905 0.13,-0.943 0.374,-0.697 0.549,-0.503 0.483,-0.382 0.198,-0.08 0.334,-0.024 0.318,0.105 -0.592,0.092 -0.061,0.227 -0.019,0.23 0.068,0.206 0.106,0.184 0.287,0.173 0.336,0.103 0.15,0.39 0.027,0.463 0.046,0.398 z m 2.243,-1.541 -0.376,0.215 0.016,-0.149 0.073,-0.325 0.171,-0.164 0.084,-0.011 0.172,-0.123 -0.019,0.272 z m -19.464,16.519 0.121,0.477 -0.257,-0.091 -0.107,-0.145 0.196,-0.239 z m -0.654,1.898 -0.015,0.197 -0.033,0.099 -0.098,10e-4 -0.146,-0.022 -0.143,-0.091 -0.092,0.026 -0.076,-0.033 0.099,-0.222 0.333,-0.118 0.128,0.095 z m 3.925,4.881 0.002,0.163 -0.293,-0.058 0.006,0.183 0.231,0.097 0.085,0.132 0.24,-0.038 0.054,0.197 -0.056,0.177 -0.16,0.129 -0.474,0.065 -0.308,0.257 -0.266,-0.039 -0.072,0.023 -0.305,0.276 -0.341,0.085 -0.093,-0.021 0.047,-0.246 0.254,-0.233 0.005,-0.224 0.065,-0.179 0.243,-0.126 0.004,-0.232 0.164,-0.207 -0.1,-0.445 0.053,-0.399 0.482,-0.022 z m -5.399,16.581 0.061,0.373 -0.154,0.001 -0.321,-0.104 -0.101,-0.159 -0.068,-0.039 -0.117,0.185 -0.188,0.009 -0.042,-0.062 0.074,-0.197 0.443,-0.372 0.083,-0.467 -0.006,-0.15 0.348,-0.035 0.082,0.057 0.037,0.064 -0.022,0.082 -0.141,0.154 -0.005,0.178 0.036,0.186 -0.115,0.09 0.06,0.16 z m 8.299,7.828 0.155,0.234 -0.298,0.102 -0.145,-0.085 -0.102,-0.107 -0.051,-0.151 0.161,0.016 0.139,-0.063 z"
       title="New Zealand"
       id="NZ"
       inkscape:connector-curvature="0" />
  </g>
  <g
     inkscape:groupmode="layer"
     id="layer15"
     inkscape:label="palaos"
     sodipodi:insensitive="true" />
  <g
     inkscape:groupmode="layer"
     id="layer16"
     inkscape:label="papua nueva guinea"
     sodipodi:insensitive="true">
    <path
       style=""
       d="m 905.79275,495.1324 0.469,0.149 0.159,0.165 -0.169,0.075 -0.41,0.051 -0.096,-0.101 -0.394,-0.102 -0.063,-0.184 -0.196,0.063 0.1,-0.129 -0.247,-0.146 -0.077,-0.195 -0.01,-0.079 0.29,0.091 z m 2.09,-0.326 -0.041,0.155 -0.103,-0.052 -0.305,0.08 -0.16,-0.018 -0.092,-0.139 -0.022,-0.064 0.265,0.05 -0.044,-0.154 0.382,0.079 z m -9.492,-2.261 -0.04,0.222 -0.23,-0.066 -0.047,-0.048 0.038,-0.14 0.204,-0.006 z m 0.511,-1.545 h 0.119 l 0.199,-0.211 0.173,-0.064 0.113,0.096 -0.184,0.674 -0.155,-0.102 -0.607,-0.188 -0.019,-0.267 -0.158,-0.086 -0.098,-0.26 -0.201,-0.288 -0.038,-0.185 0.114,0.076 0.128,0.188 0.531,0.386 -0.021,0.125 z m -1.551,-1.905 0.396,0.231 0.217,-0.067 0.118,0.038 0.254,0.268 0.014,0.196 0.041,0.168 -0.013,0.074 -0.141,0.1 0.013,-0.114 -0.108,-0.022 -0.369,0.005 -0.286,-0.071 -0.394,-0.019 0.166,-0.178 0.037,-0.073 -0.207,-0.286 -0.009,-0.136 0.017,-0.075 0.173,-0.041 z m -0.513,0.416 -0.039,0.07 -0.164,-0.051 -0.458,-0.391 0.071,-0.29 0.206,-0.15 0.313,0.164 0.104,0.24 0.031,0.134 z m 6.415,-1.51 0.163,0.042 0.339,-0.021 0.112,0.162 0.155,0.056 0.134,0.073 0.119,0.106 -0.001,0.065 -0.028,0.056 -0.072,0.051 0.021,0.114 -0.124,-0.017 -0.154,0.06 -0.304,-0.133 -0.11,-0.03 -0.033,-0.114 -0.197,-0.191 -0.345,-0.137 0.174,-0.112 z m -25.373,-0.919 0.051,0.124 -0.408,-0.169 -0.39,-0.283 -0.197,-0.077 -0.132,-0.187 0.242,0.139 0.422,0.13 z m 21.095,0.282 0.048,0.202 -0.219,-0.216 0.098,-0.244 0.017,-0.132 -0.011,-0.074 -0.219,-0.126 0.116,-0.206 0.123,-0.07 0.077,-0.02 -0.004,0.291 0.063,0.13 z m -21.105,-0.71 -0.122,0.009 -0.495,-0.191 -0.126,-0.139 0.579,0.031 0.149,0.035 0.031,0.195 z m 12.458,-7.462 -0.113,0.021 -0.049,-0.127 -0.263,-0.11 -0.262,-0.342 0.004,-0.293 0.034,-0.084 0.146,-0.004 0.584,0.338 0.061,0.108 -0.044,0.321 z m 22.261,2.413 -0.068,0.263 -0.052,0.045 -0.064,-0.099 -0.244,0.096 -0.116,0.109 -0.124,0.08 -0.286,-0.02 -0.271,-0.072 -0.263,-0.133 -0.233,-0.171 -0.234,-0.269 -0.146,-0.278 0.072,-0.323 -0.091,-0.292 -0.442,-0.207 -0.097,-0.067 -0.196,-0.29 -0.195,-0.126 -0.249,-0.254 -0.063,-0.11 -0.106,-0.322 -0.034,-0.194 0.09,-0.565 -0.033,-0.282 0.121,0.027 0.129,0.111 0.146,0.077 0.355,0.052 0.271,0.225 0.261,0.439 0.031,0.144 0.083,0.104 0.268,0.187 0.14,0.12 0.265,0.479 0.146,0.102 0.174,0.041 0.161,0.069 0.269,0.21 0.248,0.238 0.167,0.25 0.128,0.268 z m -24.645,-3.518 -0.157,0.016 -0.256,-0.266 -0.065,-0.099 0.025,-0.139 0.326,-0.186 0.211,0.17 0.044,0.364 z m 20.967,0.002 -0.056,0.022 -0.122,-0.354 -0.021,-0.262 -0.037,-0.193 -0.064,-0.115 0.184,-0.212 0.076,-0.059 0.139,0.112 0.021,0.249 0.106,0.211 -0.081,0.461 z m -24.214,-1.977 -0.188,0.083 -0.135,-0.063 -0.058,-0.184 0.046,-0.177 0.165,-0.14 0.104,-0.042 0.117,0.095 0.045,0.188 z m 16.548,-1.201 0.146,0.056 0.42,-0.292 0.225,0.204 0.287,0.099 0.298,0.056 -0.118,0.42 0.035,0.194 0.077,0.193 -0.01,0.285 -0.137,0.254 -0.263,0.371 -0.118,0.068 -0.138,0.04 -0.43,0.03 -0.083,0.197 0.028,0.209 0.232,0.274 0.186,0.308 -0.185,0.283 -0.305,0.198 -0.289,0.101 -0.479,-0.06 -0.505,0.025 -0.095,0.108 -0.002,0.179 -0.071,0.136 -0.092,0.124 -0.256,0.257 -0.287,0.227 -0.391,0.215 -0.131,0.051 -0.347,0.034 -0.311,0.124 -0.139,0.121 -0.151,0.098 -0.33,0.107 -0.321,0.212 -0.127,0.036 -0.667,0.037 -0.954,0.01 -0.282,0.022 -0.274,-0.029 -0.151,-0.083 -0.324,-0.381 -0.282,-0.131 -0.308,0.004 -0.41,0.135 -0.077,-0.03 -0.818,-0.563 -0.248,-0.138 -0.265,-0.102 -0.323,-0.072 -0.305,-0.113 -0.18,-0.268 0.021,-0.349 0.245,-0.205 0.373,0.101 0.143,-0.001 0.14,-0.058 0.165,0.019 0.166,0.051 0.605,-0.076 0.35,0.106 0.341,0.142 0.318,0.03 0.327,-0.03 0.438,-0.16 0.139,0.021 0.422,10e-4 0.369,-0.214 0.138,-0.863 0.094,-0.294 0.126,-0.064 0.09,0.018 0.135,0.147 -0.173,0.183 -0.076,0.141 -0.025,0.344 0.095,0.334 0.216,0.265 0.324,0.034 0.297,-0.175 0.323,-0.037 0.298,0.17 0.306,-0.029 0.14,-0.111 0.163,-0.048 0.162,-0.018 0.147,-0.066 0.195,-0.289 0.13,-0.325 0.194,-0.256 0.529,-0.427 0.153,-0.053 0.165,-0.029 0.372,0.019 0.277,-0.152 0.021,-0.342 -0.04,-0.347 -0.316,-0.815 -0.021,-0.129 0.045,-0.145 0.092,-0.13 0.311,-0.002 0.324,0.047 0.128,0.123 z m 4.893,-0.552 -0.025,0.066 -0.165,-0.076 0.136,-0.143 0.065,-0.01 z m -2.774,-2.698 -0.068,0.245 -0.172,-0.144 -0.117,-0.207 0.074,-0.092 0.193,-0.055 z m -1.604,-0.519 -0.03,0.141 -0.088,-0.008 -0.241,-0.276 -0.047,-0.072 0.057,-0.069 0.28,0.203 z m -0.398,-0.328 h -0.067 l -0.01,-0.223 0.046,-0.117 0.156,0.082 0.026,0.199 z m -21.99,2.751 0.354,0.008 0.355,-0.043 0.146,0.019 0.144,0.044 0.131,0.084 0.066,0.161 0.221,0.224 0.312,0.101 0.297,0.203 0.267,0.242 0.196,0.244 0.223,0.206 0.337,0.087 0.355,0.014 1.214,1.225 0.059,0.189 0.014,0.804 -0.134,0.628 0.302,0.193 0.412,0.072 0.578,0.134 0.556,0.2 1.771,0.848 0.243,0.072 0.357,0.028 0.36,-0.012 0.129,0.043 0.27,0.154 0.135,0.101 0.242,0.274 0.216,0.298 0.093,0.085 0.109,0.066 0.063,0.162 0.084,0.5 -0.025,0.312 -0.099,0.116 -0.283,0.056 -0.992,0.053 -0.664,-0.058 -0.465,0.315 -0.013,0.138 0.033,0.128 0.404,0.669 0.238,0.594 0.197,0.241 0.295,0.196 0.263,0.232 0.242,0.267 0.503,0.465 0.273,0.173 0.321,0.106 0.534,0.361 0.071,0.159 0.152,0.502 0.066,0.341 0.01,0.141 0.038,0.126 0.47,0.31 0.104,0.086 0.209,0.688 0.161,0.32 0.271,0.113 0.315,-0.007 0.857,-0.205 0.124,-0.007 0.159,0.047 0.139,0.112 0.046,0.31 -0.135,0.326 -0.037,0.313 0.169,0.257 0.437,0.2 0.16,0.055 0.786,0.064 0.309,0.054 0.303,0.087 0.104,0.078 -0.073,0.138 -0.158,0.068 -0.18,0.027 -0.289,0.1 0.005,0.178 0.163,0.185 0.149,0.223 0.125,0.081 0.136,0.055 0.34,0.077 0.331,0.106 0.218,0.105 0.225,0.076 0.49,0.048 0.36,0.143 0.512,-0.06 -0.443,0.232 -0.153,0.057 -0.535,-0.087 -0.101,0.09 0.221,0.246 0.327,0.165 0.117,0.096 -0.082,0.112 -0.381,0.225 -0.159,0.033 -0.297,0.018 -0.498,-0.097 -0.353,-0.124 -0.099,-0.169 -0.094,-0.099 -0.318,-0.238 -0.227,-0.13 -0.288,-0.044 -0.301,0.002 -0.538,-0.138 -1.167,-0.098 -0.278,-0.06 -0.35,-0.19 -0.165,-0.027 -0.177,0.06 -0.451,0.037 -0.132,-0.017 -0.322,-0.162 -0.331,-0.06 -0.139,0.049 -0.14,0.011 -0.453,-0.116 -0.341,-0.049 -0.28,-0.162 -0.152,-0.151 -0.172,-0.134 -0.159,-0.345 -0.247,-0.327 -0.308,-0.269 -0.658,-0.434 -0.132,-0.108 -0.258,-0.397 0.014,-0.264 0.094,-0.266 -0.142,0.091 -0.16,-0.012 -0.448,-0.176 -0.185,-0.209 -0.299,-0.568 -0.191,-0.3 -0.447,-0.53 -0.129,-0.314 -0.188,-0.275 -0.115,-0.102 -0.096,-0.118 -0.085,-0.153 -0.127,-0.106 -0.624,-0.235 -0.109,-0.074 -0.121,-0.039 -0.464,-0.024 -0.269,-0.039 -0.506,-0.193 -0.262,-0.058 -0.314,-0.037 -0.305,-0.073 -0.148,-0.072 -0.1,-0.121 -0.059,-0.287 -0.256,0.031 -0.25,-0.05 -0.242,-0.101 -0.247,-0.061 -0.169,0.087 -0.052,0.229 -0.078,0.012 -0.145,-0.047 -0.072,0.028 -0.157,0.105 -0.125,0.143 -0.232,-0.022 -0.475,-0.144 -0.212,-0.09 -0.18,-0.163 -0.154,-0.185 -0.156,-0.146 -0.192,-0.106 0.244,0.252 0.563,1.109 -0.141,0.021 -0.145,-0.028 0.133,0.213 -0.153,0.032 -0.152,-0.002 -0.32,-0.092 -0.318,-0.031 -0.094,0.045 0.067,0.08 0.112,0.236 0.089,0.247 -0.46,0.111 -0.472,0.068 -0.525,0.133 -0.531,0.009 -0.272,-0.076 -0.279,-0.043 -0.264,0.043 -0.255,0.097 -0.215,-0.016 -0.136,-0.174 -0.063,-0.131 -0.081,-0.114 -0.201,0.018 -0.194,0.062 0.332,0.007 0.1,0.146 0.086,0.176 0.235,0.16 0.283,-0.095 0.623,0.026 0.605,0.279 0.144,0.032 0.132,0.055 0.312,0.275 0.235,0.25 0.198,0.286 0.042,0.112 -0.014,0.3 -0.06,0.149 -0.391,0.211 -0.417,0.16 -0.615,0.311 -0.595,0.354 -0.313,-0.069 -0.282,-0.188 -0.109,-0.051 -0.291,-0.102 -0.177,-0.037 -0.704,0.08 -0.705,0.041 -0.298,-0.003 -0.288,-0.06 -0.317,-0.111 -0.314,0.049 -0.215,0.13 -0.235,0.02 -0.44,-0.29 -0.001,-0.037 v -0.574 -0.573 -0.573 l -10e-4,-0.573 v -0.573 -0.572 -0.572 -0.572 l -10e-4,-0.572 v -0.571 -0.47 l -0.156,-0.183 -0.16,-0.281 0.034,-0.361 0.194,-0.446 0.087,-0.298 v -0.243 -0.57 -0.57 l -10e-4,-0.57 v -0.569 -0.569 -0.569 -0.569 l -0.001,-0.569 v -0.568 -0.568 -0.568 -0.568 l -10e-4,-0.568 v -0.568 -0.568 l -10e-4,-0.567 v -0.567 -0.342 -0.188 -0.011 l 0.084,0.001 0.284,0.003 0.228,0.046 1.406,0.606 0.42,0.243 0.144,0.057 0.141,0.002 0.135,0.028 0.634,0.335 0.947,0.338 1,0.324 0.31,0.068 0.321,0.028 0.696,0.112 0.367,0.1 0.537,0.397 0.271,0.123 0.254,0.224 0.359,0.241 0.142,0.061 z m 24.82,2.631 -0.208,0.213 -0.129,-0.199 -0.166,-0.174 -0.131,-0.178 -0.167,-0.384 -0.008,-0.193 0.044,-0.205 0.01,-0.207 -0.08,-0.42 -0.196,-0.383 -0.681,-0.913 -0.214,-0.239 -0.245,-0.214 -0.157,-0.052 -0.317,-0.051 -0.141,-0.043 -0.262,-0.149 -0.243,-0.173 -0.603,-0.515 -0.318,-0.146 -0.168,-0.18 -0.949,-0.58 -0.277,-0.137 h -0.338 l -0.285,-0.114 0.226,-0.072 0.047,-0.194 -0.05,-0.197 0.477,0.322 0.503,0.281 0.146,0.227 0.248,0.014 0.451,0.188 0.31,0.169 0.292,0.195 0.329,0.279 0.634,0.219 0.09,0.08 0.321,0.364 0.421,0.309 0.144,0.17 1.785,1.463 0.302,0.41 0.023,0.28 -0.059,0.11 -0.188,0.237 0.003,0.28 -0.063,0.251 z m -7.098,-5.852 -0.56,0.038 -0.201,-0.042 -0.18,-0.161 -0.163,-0.251 -0.164,-0.059 -0.066,-0.049 0.396,-0.192 0.351,-0.058 0.567,0.24 0.058,0.12 0.005,0.078 -0.016,0.255 z m -7.184,-1.056 -0.091,0.147 -0.212,-0.013 -0.094,-0.043 0.153,-0.028 0.062,-0.121 0.066,-0.043 z m -2.272,-0.901 0.936,0.181 0.062,-0.002 -0.011,-0.065 0.016,-0.018 0.056,0.047 -0.018,0.132 -0.147,0.033 -0.138,-0.013 -0.098,0.069 -0.268,0.255 -0.18,-0.042 -0.22,0.057 -0.386,0.005 -0.501,-0.112 -0.138,0.095 -0.178,-0.026 -0.177,0.104 -0.073,-0.005 -0.043,-0.152 0.003,-0.078 0.21,-0.065 -0.031,-0.239 0.169,-0.12 0.292,0.01 0.272,-0.081 z m 7.573,-1.136 -0.007,0.101 -0.202,-0.051 -0.056,0.016 -0.352,-0.292 0.006,-0.178 0.093,-0.152 0.146,0.024 0.259,0.191 z"
       title="Papua New Guinea"
       id="PG"
       inkscape:connector-curvature="0" />
  </g>
  <g
     inkscape:groupmode="layer"
     id="layer17"
     inkscape:label="polinesia francesa"
     sodipodi:insensitive="true" />
  <g
     inkscape:groupmode="layer"
     id="layer18"
     inkscape:label="samoa"
     sodipodi:insensitive="true">
    <path
       style=""
       d="m 1001.5787,500.8144 0.314,0.271 0.126,0.359 -0.136,0.343 -0.297,-0.084 -0.432,0.073 -0.144,-0.025 -0.345,-0.421 -0.24,-0.189 -0.096,-0.178 0.305,0.02 0.446,-0.118 z m 2.469,1.668 -0.77,0.002 -0.381,-0.13 -0.135,-10e-4 -0.326,-0.272 -0.05,-0.143 0.171,-0.094 0.355,-0.049 0.714,0.207 0.108,0.184 0.164,0.02 0.128,0.08 0.033,0.129 z"
       title="Samoa"
       id="WS"
       inkscape:connector-curvature="0" />
    <path
       style=""
       d="m 990.83875,500.4344 -0.046,0.023 -0.052,-0.112 0.067,-0.169 0.065,-0.06 0.056,0.133 z m -5.293,2.83 -0.159,0.019 -0.155,-0.038 -0.101,-0.162 0.046,-0.069 0.101,0.032 0.104,0.12 0.172,0.055 z"
       title="Wallis and Futuna"
       id="WF"
       inkscape:connector-curvature="0" />
  </g>
  <g
     inkscape:groupmode="layer"
     id="layer19"
     inkscape:label="samos americana"
     sodipodi:insensitive="true" />
  <g
     inkscape:groupmode="layer"
     id="layer20"
     inkscape:label="tonga"
     sodipodi:insensitive="true">
    <path
       style=""
       d="m 997.03275,515.8364 -0.106,0.174 -0.051,-0.002 -0.123,-0.101 -0.045,-0.068 0.188,-0.205 0.097,-0.016 0.13,0.069 -0.006,0.058 z m -3.392,7.508 h 0.04 l 0.044,-0.088 0.151,-0.032 -0.017,0.095 -0.204,0.308 -0.128,-0.12 -0.374,-0.197 -0.075,-0.152 0.124,-0.115 -0.013,0.093 0.063,0.042 0.211,0.016 0.188,0.083 -0.117,0.027 z m 0.699,0.392 -0.016,0.45 -0.137,-0.206 -0.016,-0.096 0.139,-0.139 z"
       title="Tonga"
       id="TO"
       inkscape:connector-curvature="0" />
  </g>
  <g
     inkscape:groupmode="layer"
     id="layer21"
     inkscape:label="tuvalu"
     sodipodi:insensitive="true">
    <path
       d="m 972.47375,479.9984 -0.016,10e-4 -0.025,-0.013 -0.009,-0.029 0.009,-0.028 0.068,0.046 z m -2.761,0.472 -0.016,0.018 -0.021,-0.009 -0.01,-0.029 0.03,-0.041 z m 6.707,3.35 -0.017,0.025 -0.02,-0.009 v -0.037 z m 1.461,3.038 -0.025,0.02 -0.03,-0.27 0.045,0.046 0.019,0.029 0.017,0.036 0.004,0.038 -0.002,0.042 -0.01,0.028 z"
       title="Tuvalu"
       id="TV"
       inkscape:connector-curvature="0" />
  </g>
  <g
     inkscape:groupmode="layer"
     id="layer22"
     inkscape:label="vanuatu"
     sodipodi:insensitive="true">
    <path
       style=""
       d="m 944.95075,502.0824 -0.041,0.028 -0.065,-0.022 -0.166,-0.348 0.042,-0.116 0.209,-0.111 0.186,0.193 0.018,0.107 -0.002,0.091 -0.028,0.079 -0.124,0.033 z m 0.269,1.017 -0.117,0.146 -0.316,-0.048 -0.075,-0.039 0.021,-0.242 0.079,-0.083 0.189,-0.075 0.259,0.119 z m -2.354,1.631 0.181,0.955 0.21,-0.002 0.107,-0.051 0.124,-0.224 0.056,-0.351 0.109,-0.05 0.138,0.038 -0.06,0.112 0.04,0.281 0.106,0.156 0.07,0.028 0.142,0.735 0.053,0.154 -0.003,0.124 -0.297,0.275 -0.441,-0.008 -0.311,0.165 -0.189,-0.011 10e-4,-0.186 -0.168,-0.148 -0.19,-0.317 0.047,-0.563 -0.339,-1.043 -0.003,-0.261 0.116,-0.34 0.113,-0.016 0.154,0.284 z m 4.051,1.449 -0.049,0.179 -0.116,-0.208 -0.074,-0.874 0.03,-0.081 0.061,-0.006 0.142,0.608 z m -0.781,0.31 -0.188,0.133 -0.348,-0.013 -0.129,-0.075 0.427,-0.404 0.494,-0.083 z m 0.847,1.549 -0.047,0.003 -0.048,-0.133 -0.158,-0.71 0.104,-0.634 0.065,0.134 0.237,1.113 -0.032,0.182 z m -2.79,-0.714 -0.051,0.075 -0.298,-0.188 0.068,-0.181 0.324,0.065 z m 0.544,1.078 0.129,0.063 h 0.07 l 0.042,0.141 0.402,0.282 0.11,-0.008 0.093,0.154 0.173,0.078 0.047,0.157 0.123,0.16 -0.215,0.194 -0.417,-0.052 -0.238,0.22 -0.216,-0.056 -0.038,-0.116 0.03,-0.039 -0.129,-0.295 -0.058,-0.45 -0.087,-0.265 -0.095,-0.113 -0.194,0.099 -0.079,0.017 -0.188,-0.217 0.089,-0.441 0.047,-0.126 0.151,-0.024 0.23,0.116 z m 2.481,0.699 -0.321,0.03 -0.451,-0.091 -0.182,-0.126 -0.078,-0.126 0.156,-0.094 0.224,-0.044 0.279,-0.289 0.097,0.11 0.104,0.324 0.112,0.098 0.063,0.098 z m 0.421,1.287 0.084,0.043 -0.047,0.121 -0.385,-0.138 -0.311,0.054 -0.087,-0.006 -0.092,-0.111 -0.068,-0.221 0.031,-0.154 0.13,-0.108 0.049,-0.017 0.098,0.133 0.089,0.091 0.086,0.039 0.196,0.217 z m -0.003,2.229 0.279,0.417 0.111,0.033 -0.169,0.299 -0.352,0.026 -0.415,-0.077 0.152,-0.103 -0.079,-0.116 -0.125,-0.023 -0.144,0.055 -0.066,-0.019 0.092,-0.192 0.23,-0.271 0.068,-0.021 0.062,-0.003 0.061,0.024 z m 2.495,4.106 -0.13,0.143 -0.113,-0.016 -0.732,-0.33 0.031,-0.136 -0.03,-0.347 0.08,-0.188 0.202,-0.077 0.157,0.04 0.096,0.277 0.219,0.113 -0.153,0.095 0.267,0.209 z m 0.44,1.773 -0.148,0.322 -0.256,-0.075 -0.239,-0.233 -0.125,-0.203 0.084,-0.389 0.122,-0.068 0.128,0.022 0.065,0.38 z m 1.137,1.917 -0.099,0.164 -0.152,-0.002 -0.195,-0.116 0.037,-0.145 0.222,-0.026 0.064,0.01 z"
       title="Vanuatu"
       id="VU"
       inkscape:connector-curvature="0" />
  </g>
  <g
     inkscape:groupmode="layer"
     id="layer23"
     inkscape:label="wallis y futuna"
     sodipodi:insensitive="true" />
</svg>
