<?xml version="1.0" encoding="UTF-8" standalone="no"?>
<!-- Created for MapSVG plugin: http://mapsvg.com -->

<svg
   xmlns:mapsvg="http://mapsvg.com"
   xmlns:dc="http://purl.org/dc/elements/1.1/"
   xmlns:cc="http://creativecommons.org/ns#"
   xmlns:rdf="http://www.w3.org/1999/02/22-rdf-syntax-ns#"
   xmlns:svg="http://www.w3.org/2000/svg"
   xmlns="http://www.w3.org/2000/svg"
   xmlns:sodipodi="http://sodipodi.sourceforge.net/DTD/sodipodi-0.dtd"
   xmlns:inkscape="http://www.inkscape.org/namespaces/inkscape"
   mapsvg:geoViewBox="-169.110266 83.600842 190.486279 -58.508473"
   width="1009.6727"
   height="665.96301"
   version="1.1"
   id="svg258"
   sodipodi:docname="svalbard.svg"
   inkscape:version="0.92.5 (2060ec1f9f, 2020-04-08)">
  <metadata
     id="metadata264">
    <rdf:RDF>
      <cc:Work
         rdf:about="">
        <dc:format>image/svg+xml</dc:format>
        <dc:type
           rdf:resource="http://purl.org/dc/dcmitype/StillImage" />
        <dc:title></dc:title>
      </cc:Work>
    </rdf:RDF>
  </metadata>
  <defs
     id="defs262" />
  <sodipodi:namedview
     pagecolor="#ffffff"
     bordercolor="#666666"
     borderopacity="1"
     objecttolerance="10"
     gridtolerance="10"
     guidetolerance="10"
     inkscape:pageopacity="0"
     inkscape:pageshadow="2"
     inkscape:window-width="1886"
     inkscape:window-height="1029"
     id="namedview260"
     showgrid="false"
     inkscape:zoom="0.81529285"
     inkscape:cx="188.14621"
     inkscape:cy="330.16468"
     inkscape:window-x="34"
     inkscape:window-y="1106"
     inkscape:window-maximized="1"
     inkscape:current-layer="layer1" />
  <g
     inkscape:groupmode="layer"
     id="layer1"
     inkscape:label="svalbard"
     style="display:inline"
     sodipodi:insensitive="true">
    <path
       d="m 449.76675,177.8574 -0.259,0.055 -0.149,-0.19 0.377,-0.522 1.246,-0.987 0.497,-0.947 0.96,-0.327 0.063,0.528 -0.065,0.654 -0.843,0.518 -0.935,0.35 z m 79.067,-33.457 -0.339,0.404 -0.508,-0.609 -0.337,-0.785 0.179,-0.299 0.903,-0.04 0.221,0.409 0.037,0.233 z m 6.704,-50.915999 0.386,0.335 0.835,-0.069 0.461,2.381 0.259,2.487 0.42,0.178 0.801,-0.34 0.714,-0.166 0.366,0.184 0.652,0.719 0.281,0.504 -0.245,0.394999 -0.597,0.441 -0.099,1.308 0.601,0.453 0.992,1.105 0.559,0.143 0.997,-0.452 0.936,0.856 0.927,1.033 -2.167,1.296 -0.19,0.362 -0.3,0.952 -0.319,0.779 -0.295,0.458 -0.648,0.785 -0.349,0.271 -0.784,-0.06 -0.294,0.311 -0.272,0.633 -0.274,0.454 -0.696,0.116 -0.355,-0.628 0.117,-0.194 0.05,-0.372 -0.124,-0.89 0.664,-0.915 0.15,-0.509 -0.132,-0.184 -0.183,0.05 -0.483,-0.28 -0.143,0.014 -0.4,0.536 -0.555,0.36 -0.563,0.091 -2.263,0.688 -0.342,-0.241 -0.154,-1.371 0.92,-0.708 0.141,-1.201 0.232,-0.804 0.271,-0.535 0.498,-1.387 0.125,-0.1 -1.242,-1.107 -0.491,-0.722 -0.535,-1.452999 -0.164,-1.185 -0.725,-1.015 0.089,-1.306 -0.526,0.103 -0.406,-0.922 0.378,-0.52 1.92,-0.592 1.145,-0.579 z m 14.785,-0.757 -0.412,0.035 -0.757,-1.055 -0.146,-0.922 0.135,-0.378 0.365,-0.014 0.569,1.26 0.614,0.379 z m -43.854,0.544 0.032,0.977 0.457,-0.097 0.539,1.036 0.588,0.547 0.166,0.374 0.125,0.48 0.356,0.962 0.169,1.008 -0.425,0.106 -0.585,-1.438 -0.478,-0.823 -0.601,-0.706 -0.486,-0.035 -0.219,-0.309 -0.788,-2.566 -0.145,-0.597 -0.45,-0.965 -0.199,-1.208 0.001,-0.951 0.602,0.225 0.528,0.597 0.458,1.344 0.082,0.415 -0.209,0.55 0.215,0.649 z m 49.947,-4.339 0.837,0.092 0.841,-0.231 0.145,0.247 -1.083,0.766 -1.206,-0.407 -1.085,-0.104 -1.281,0.849 -0.418,-0.339 0.651,-0.819 0.71,-0.272 0.114,-0.502 0.271,-0.086 0.938,-0.052 z m -34.409,-15.197 0.146,0.032 0.142,-0.17 0.103,-0.45 0.114,-0.249 0.71,0.292 1.007,0.898 0.299,0.441 0.42,0.905 0.341,1.511 -0.271,1.083 -0.357,1.019 -0.126,0.56 0.13,0.801 -0.053,0.776 -0.13,0.684 0.54,-0.78 1.154,-2.522 0.172,-0.157 0.18,0.086 0.517,0.521 0.469,1.288 0.103,0.424 0.084,0.519 0.048,0.64 -0.026,0.73 -0.043,0.507 -0.245,0.327 -0.119,0.298 0.265,0.022 0.303,0.39 0.277,0.826 0.31,0.331 1.125,-0.279 0.731,0.431 0.401,1.345 0.618,-0.303 0.002,-0.717 0.136,-0.308 0.829,0.245 0.429,0.335 0.438,0.704 -0.748,1.146 0.617,1.092 1.036,0.787 0.625,0.822 0.113,0.343 0.102,0.455 -0.407,0.588 -0.414,0.331 -1.043,0.057 -0.948,0.414 -1.735,0.293 -0.258,0.187 -0.061,0.167 -0.102,0.506 -0.667,1.161 -0.646,1.404 -0.267,0.84 -0.201,1.169 -0.074,0.711 0.144,0.686 -0.038,0.690999 -0.486,0.54 -0.308,0.021 -0.386,-0.106 -0.38,0.31 -0.024,0.465 0.022,0.653 -0.097,1.977 -0.118,1.475 -0.177,1.359 -0.199,0.728 -0.254,0.202 -0.815,0.133 -0.628,1.257 -0.507,2.224 -0.264,0.865 -0.55,1.357 0.1,0.479 0.171,0.517 -0.3,0.921 -0.464,1.028 0.009,0.396 0.156,0.722 0.076,0.748 -0.358,0.641 -0.658,0.325 -0.67,-0.364 -0.326,-0.43 -0.302,-0.69 -0.321,-0.452 -0.334,-0.272 -1.285,-1.546 -1.186,-2.475 -1.083,-0.973 -0.706,-0.463 -0.34,-0.45 -0.332,-0.606 -0.287,-0.684 -0.267,-0.867 -0.129,-0.541 -0.024,-0.815 0.085,-0.48 0.127,-0.247 0.86,-0.203 0.309,0.115 0.304,0.428 0.277,0.168 0.634,-2.141 3.607,-1.237 1.159,-0.215 1.163,0.013 -0.181,-0.588 -0.154,-0.748 -0.171,-0.182 -0.879,0.42 -1.346,0.441 h -0.656 l -0.677,-0.294 -0.675,0.162 -0.696,0.639 -0.702,0.403 -0.682,0.162 -1.442,-0.065 -0.357,-0.33 -0.481,-0.766 -0.117,-0.394 -0.1,-0.484 -0.094,-1.463 0.104,-0.4 0.147,-0.23 0.151,-0.142 0.317,-0.007 0.311,0.254 0.728,0.836 -0.166,-0.897 2.095,-1.086999 0.973,-0.956 0.5,-0.161 0.501,0.07 -0.11,-0.511 -0.004,-0.475 0.356,-0.388 0.256,-0.167 0.771,-0.191 1.759,0.033 0.634,-0.263 0.475,-0.666 -0.506,0.232 -0.507,0.044 -0.237,-0.138 -0.537,-0.583 -0.244,-0.769 0.696,-1.546 0.242,-0.722 -0.708,0.104 -0.236,0.253 -0.811,1.423 -0.599,0.636 -0.739,0.305 -0.739,-0.026 -0.161,-0.201 -0.226,-0.938 -0.071,-0.495 0.03,-0.272 0.234,-0.782 0.122,-0.831 -0.021,-0.719 -0.172,-0.145 -0.273,0.704 -0.247,0.974 -0.339,0.486 -0.35,-0.133 -0.149,-0.373 -0.13,-0.572 -0.137,-0.221 h -0.152 l -0.313,0.229 -0.31,0.423 0.107,0.64 0.028,0.709 -0.134,0.561 -0.101,0.683 0.319,0.429 0.26,0.663 -0.39,0.311 -0.382,0.452 -0.351,0.695 -0.359,0.539 -0.569,0.057 -0.709,0.298 -1.417,0.105 -0.666,-0.877 -0.122,-0.418 -0.133,-0.281 -0.442,-0.463 -0.645,-1.374 -0.497,-1.578 -0.335,-0.154 -0.496,-0.524 -0.27,-0.45 -0.257,-0.603 -0.077,-0.717 0.025,-0.656 0.297,-0.292 -0.702,-0.741 -0.689,-0.984 0.254,-0.332 0.256,-0.146 2.042,1.149 0.136,-0.143 0.224,-0.57 -0.08,-0.192 -0.342,-0.132 -0.466,0.004 -0.116,-0.118 -0.18,-0.621 -0.157,-0.767 -0.067,-0.513 -0.026,-0.603 0.347,-0.908 0.19,-0.818 -0.296,-0.38 -0.839,0.023 -0.279,0.116 0.103,1.175 -0.267,0.807 -0.512,0.627 -0.367,-0.305 -0.283,-1.544 -0.37,-1.084 -0.139,-0.687 -0.106,-0.993 -0.15,-0.727 -0.272,-0.882 -0.036,-0.546 0.034,-0.405 0.207,-0.922 -0.157,-0.772 -0.192,-0.68 -0.012,-0.389 0.18,-0.481 0.162,-0.16 0.174,0.035 0.515,0.573 0.283,0.683 0.098,-0.055 0.184,-1.016 0.261,-0.23 1.007,-0.336 1.121,1.313 0.29,0.291 0.232,0.094 -0.12,-0.581 -0.073,-0.757 0.171,-0.287 0.905,0.677 0.424,-0.041 0.994,-0.886 1.643,-0.466 0.621,0.701 0.032,0.373 -0.013,0.501 -0.04,0.15 -0.363,0.581 -2.072,0.473 -1.358,1.803 1.852,-0.289 0.333,0.206 0.14,1.451 0.135,0.152 0.476,0.21 0.323,0.43 0.33,0.816 0.347,0.547 0.203,-0.068 0.074,-0.593 -0.083,-0.705 -0.043,-0.807 0.024,-0.875 0.056,-0.727 0.389,-0.514 0.565,-1.679 0.6,-1.148 0.668,0.511 0.619,1.432 0.558,2.021 0.541,2.131 0.606,2.603 0.292,0.908 0.265,0.214 1.224,2.647 0.138,0.073 -0.253,-2.008 -0.634,-3.457 -0.428,-2.706 -0.097,-1.046 -0.069,-1.481 0.027,-0.426 0.055,-0.387 0.31,-1.606 0.406,-0.786 -0.123,-1.114 0.104,-0.861 0.426,-0.684 0.396,-0.05 0.385,0.52 z m 44.172,-3.436 -2.662,0.615 -0.269,-0.431 4.314,-1.808 0.223,-0.177 0.801,-0.226 0.688,0.412 -0.204,0.318 z m -38.685,-3 -0.608,0.919 -1.018,-0.707 0.121,-0.728 0.242,-0.444 0.639,0.167 z m 6.051,0.848 0.282,0.184 1.546,-0.067 0.296,0.404 0.117,0.977 0.236,0.334 0.329,0.104 0.821,1.187 0.279,0.17 0.243,-0.658 0.186,-1.649 0.01,-1.956 -0.079,-0.956 0.092,-0.616 0.275,-0.24 0.346,0.064 0.338,-0.344 0.292,-0.608 0.313,-0.084 0.683,0.462 0.18,0.362 -0.183,0.746 -0.071,1.059 -0.309,2.166 0.67,0.133 0.939,-0.456 0.238,-0.626 0.505,-1 0.534,0.158 0.256,-0.133 0.129,-0.437 0.049,-0.521 0.295,0.087 0.404,1.003 0.188,0.155 0.344,-0.258 0.139,0.01 0.34,0.399 1.584,0.723 0.549,0.385 0.236,0.359 0.239,0.211 1.685,-0.005 1.19,0.254 0.439,0.566 0.368,1.08 0.141,2.463 -0.333,0.659 -2.41,2.969 -0.604,0.943 -0.292,0.864 -0.493,1.873 -0.239,0.562 -1.128,0.882 -0.264,0.094 -0.848,-0.431 -0.259,0.04 -1.031,0.955 -0.355,0.575 -0.348,0.722 -0.52,0.317 -0.53,-0.17 -2.4,-0.375 -0.321,-0.507 -0.263,-0.978 0.477,-1.26 -2.677,0.47 -2.948,-0.255 -0.156,-0.178 -0.126,-0.489 -1.014,-0.335 -0.762,-0.403 -0.64,-0.681 -0.633,-0.888 0.203,-0.417 0.208,-0.244 0.544,-0.103 0.483,0.124 0.86,-0.007 0.2,-0.903 0.342,-0.261 0.273,-0.651 -0.908,-0.412 -0.946,-0.062 -0.631,0.542 -0.731,0.245 -0.668,0.032 -1.285,-0.153 -0.609,-0.385 -0.833,-1.01 -0.29,-0.56 -0.112,-0.441 -0.083,-0.67 0.952,-0.604 0.37,-0.476 0.364,-0.653 -1.438,-0.373 -0.602,-0.551 -0.597,-0.813 0.484,-0.46 1.936,-0.368 0.513,0.308 0.508,0.593 0.563,0.364 0.544,-0.767 -0.512,-0.364 -0.458,-1.286 -0.097,-0.643 0.061,-0.495 0.24,-0.074 0.179,0.215 0.676,1.216 0.513,0.377 0.144,-1.12 0.023,-0.536 -0.094,-0.444 -0.241,-0.822 -0.216,-1.016 0.334,-0.259 0.331,0.112 0.71,0.698 0.716,0.489 0.327,0.492 0.61,1.22 z"
       title="Svalbard and Jan Mayen"
       id="SJ"
       inkscape:connector-curvature="0" />
  </g>
</svg>
